<mxfile host="65bd71144e">
    <diagram id="d3OIymw5-aVt0ZqUq43Z" name="Flow Chart">
        <mxGraphModel dx="2750" dy="524" grid="1" gridSize="10" guides="1" tooltips="1" connect="1" arrows="1" fold="1" page="1" pageScale="1" pageWidth="850" pageHeight="1100" math="0" shadow="0">
            <root>
                <mxCell id="0"/>
                <mxCell id="1" parent="0"/>
                <mxCell id="2" value="&lt;font style=&quot;font-size: 35px;&quot;&gt;UE&lt;/font&gt;" style="rounded=0;whiteSpace=wrap;html=1;fontFamily=Times New Roman;fontSize=15;" parent="1" vertex="1">
                    <mxGeometry x="-1335" y="770" width="170" height="100" as="geometry"/>
                </mxCell>
                <mxCell id="3" value="" style="endArrow=none;html=1;rounded=0;fontFamily=Times New Roman;fontSize=15;entryX=0.5;entryY=1;entryDx=0;entryDy=0;" parent="1" target="2" edge="1">
                    <mxGeometry width="50" height="50" relative="1" as="geometry">
                        <mxPoint x="-1250" y="1100" as="sourcePoint"/>
                        <mxPoint x="-1250" y="930" as="targetPoint"/>
                    </mxGeometry>
                </mxCell>
                <mxCell id="4" value="&lt;span style=&quot;font-size: 35px;&quot;&gt;gNB DU&lt;/span&gt;" style="rounded=0;whiteSpace=wrap;html=1;fontFamily=Times New Roman;fontSize=15;" parent="1" vertex="1">
                    <mxGeometry x="-880" y="770" width="170" height="100" as="geometry"/>
                </mxCell>
                <mxCell id="5" value="" style="endArrow=none;html=1;rounded=0;fontFamily=Times New Roman;fontSize=15;entryX=0.5;entryY=1;entryDx=0;entryDy=0;" parent="1" target="4" edge="1">
                    <mxGeometry width="50" height="50" relative="1" as="geometry">
                        <mxPoint x="-795" y="1100" as="sourcePoint"/>
                        <mxPoint x="-795" y="930" as="targetPoint"/>
                    </mxGeometry>
                </mxCell>
                <mxCell id="6" value="" style="endArrow=classic;html=1;rounded=0;fontFamily=Times New Roman;fontSize=35;" parent="1" edge="1">
                    <mxGeometry width="50" height="50" relative="1" as="geometry">
                        <mxPoint x="-1250" y="890" as="sourcePoint"/>
                        <mxPoint x="-800" y="890" as="targetPoint"/>
                    </mxGeometry>
                </mxCell>
                <mxCell id="7" value="RRCSetupRequest (RRC Protocal)" style="text;html=1;strokeColor=none;fillColor=none;align=center;verticalAlign=middle;whiteSpace=wrap;rounded=0;fontFamily=Times New Roman;fontSize=25;" parent="1" vertex="1">
                    <mxGeometry x="-1235" y="890" width="430" height="30" as="geometry"/>
                </mxCell>
                <mxCell id="8" value="&lt;span style=&quot;font-size: 35px;&quot;&gt;CU CP&lt;/span&gt;" style="rounded=0;whiteSpace=wrap;html=1;fontFamily=Times New Roman;fontSize=15;" parent="1" vertex="1">
                    <mxGeometry x="-230" y="770" width="170" height="100" as="geometry"/>
                </mxCell>
                <mxCell id="9" value="" style="endArrow=none;html=1;rounded=0;fontFamily=Times New Roman;fontSize=15;entryX=0.5;entryY=1;entryDx=0;entryDy=0;" parent="1" target="8" edge="1">
                    <mxGeometry width="50" height="50" relative="1" as="geometry">
                        <mxPoint x="-145" y="1100" as="sourcePoint"/>
                        <mxPoint x="-145" y="930" as="targetPoint"/>
                    </mxGeometry>
                </mxCell>
                <mxCell id="10" value="" style="endArrow=classic;html=1;rounded=0;fontFamily=Times New Roman;fontSize=25;" parent="1" edge="1">
                    <mxGeometry width="50" height="50" relative="1" as="geometry">
                        <mxPoint x="-790" y="920" as="sourcePoint"/>
                        <mxPoint x="-150" y="920" as="targetPoint"/>
                    </mxGeometry>
                </mxCell>
                <mxCell id="11" value="INITIAL UL RRC MESSAGE TRANSFER(F1AP)" style="text;html=1;strokeColor=none;fillColor=none;align=center;verticalAlign=middle;whiteSpace=wrap;rounded=0;fontFamily=Times New Roman;fontSize=25;" parent="1" vertex="1">
                    <mxGeometry x="-790" y="920" width="650" height="30" as="geometry"/>
                </mxCell>
                <mxCell id="12" value="" style="endArrow=classic;html=1;rounded=0;fontFamily=Times New Roman;fontSize=16;" parent="1" edge="1">
                    <mxGeometry width="50" height="50" relative="1" as="geometry">
                        <mxPoint x="-150" y="960" as="sourcePoint"/>
                        <mxPoint x="-790" y="960" as="targetPoint"/>
                    </mxGeometry>
                </mxCell>
                <mxCell id="13" value="&amp;nbsp;DL RRC MESSAGE TRANSFER(F1AP)" style="text;html=1;strokeColor=none;fillColor=none;align=center;verticalAlign=middle;whiteSpace=wrap;rounded=0;fontFamily=Times New Roman;fontSize=25;" parent="1" vertex="1">
                    <mxGeometry x="-790" y="960" width="650" height="30" as="geometry"/>
                </mxCell>
                <mxCell id="14" value="" style="endArrow=classic;html=1;rounded=0;fontFamily=Times New Roman;fontSize=14;" parent="1" edge="1">
                    <mxGeometry width="50" height="50" relative="1" as="geometry">
                        <mxPoint x="-800" y="990" as="sourcePoint"/>
                        <mxPoint x="-1250" y="990" as="targetPoint"/>
                    </mxGeometry>
                </mxCell>
                <mxCell id="15" value="RRCSetup(RRC Protocal)" style="text;html=1;strokeColor=none;fillColor=none;align=center;verticalAlign=middle;whiteSpace=wrap;rounded=0;fontFamily=Times New Roman;fontSize=25;" parent="1" vertex="1">
                    <mxGeometry x="-1198.75" y="990" width="357.5" height="30" as="geometry"/>
                </mxCell>
            </root>
        </mxGraphModel>
    </diagram>
    <diagram id="XXcM9xsE1CxuUHpmo7bm" name=" Establish an RRC connection">
        <mxGraphModel dx="2750" dy="-576" grid="1" gridSize="10" guides="1" tooltips="1" connect="1" arrows="1" fold="1" page="1" pageScale="1" pageWidth="850" pageHeight="1100" math="0" shadow="0">
            <root>
                <mxCell id="EwcNz54N74t9UpvTEoii-0"/>
                <mxCell id="EwcNz54N74t9UpvTEoii-1" parent="EwcNz54N74t9UpvTEoii-0"/>
                <mxCell id="EwcNz54N74t9UpvTEoii-2" value="" style="group" parent="EwcNz54N74t9UpvTEoii-1" connectable="0" vertex="1">
                    <mxGeometry x="-1290" y="1770" width="1270" height="1040" as="geometry"/>
                </mxCell>
                <mxCell id="EwcNz54N74t9UpvTEoii-3" value="&lt;span id=&quot;docs-internal-guid-6f250543-7fff-b2d6-5344-95b8192d7042&quot; style=&quot;font-size: 20px;&quot;&gt;&lt;span style=&quot;font-size: 20px; background-color: transparent; font-variant-numeric: normal; font-variant-east-asian: normal; vertical-align: baseline;&quot;&gt;&amp;nbsp;Establish an RRC connection&lt;/span&gt;&lt;/span&gt;" style="rounded=1;whiteSpace=wrap;html=1;fontSize=20;fontStyle=1;fontFamily=Times New Roman;" parent="EwcNz54N74t9UpvTEoii-2" vertex="1">
                    <mxGeometry x="370" width="270" height="50" as="geometry"/>
                </mxCell>
                <mxCell id="EwcNz54N74t9UpvTEoii-4" style="edgeStyle=orthogonalEdgeStyle;rounded=0;orthogonalLoop=1;jettySize=auto;html=1;entryX=1;entryY=0.5;entryDx=0;entryDy=0;fontFamily=Times New Roman;fontSize=20;fontColor=#808080;" parent="EwcNz54N74t9UpvTEoii-2" source="EwcNz54N74t9UpvTEoii-5" target="EwcNz54N74t9UpvTEoii-3" edge="1">
                    <mxGeometry relative="1" as="geometry">
                        <Array as="points">
                            <mxPoint x="660" y="140"/>
                            <mxPoint x="660" y="25"/>
                        </Array>
                    </mxGeometry>
                </mxCell>
                <mxCell id="EwcNz54N74t9UpvTEoii-5" value="&lt;font&gt;RRC&lt;/font&gt;" style="rhombus;whiteSpace=wrap;html=1;fontSize=20;fontFamily=Times New Roman;fontStyle=1" parent="EwcNz54N74t9UpvTEoii-2" vertex="1">
                    <mxGeometry x="465" y="100" width="80" height="80" as="geometry"/>
                </mxCell>
                <mxCell id="EwcNz54N74t9UpvTEoii-6" style="edgeStyle=orthogonalEdgeStyle;rounded=0;orthogonalLoop=1;jettySize=auto;html=1;fontFamily=Times New Roman;fontSize=20;" parent="EwcNz54N74t9UpvTEoii-2" source="EwcNz54N74t9UpvTEoii-3" target="EwcNz54N74t9UpvTEoii-5" edge="1">
                    <mxGeometry relative="1" as="geometry"/>
                </mxCell>
                <mxCell id="EwcNz54N74t9UpvTEoii-7" value="&lt;b&gt;&lt;font color=&quot;#808080&quot;&gt;IDLE&lt;/font&gt;&lt;/b&gt;" style="text;html=1;strokeColor=none;fillColor=none;align=center;verticalAlign=middle;whiteSpace=wrap;rounded=0;fontFamily=Times New Roman;fontSize=20;fontColor=default;" parent="EwcNz54N74t9UpvTEoii-2" vertex="1">
                    <mxGeometry x="440" y="190" width="60" height="30" as="geometry"/>
                </mxCell>
                <mxCell id="EwcNz54N74t9UpvTEoii-8" value="&lt;font color=&quot;#808080&quot;&gt;&lt;b&gt;ELSE&lt;/b&gt;&lt;/font&gt;" style="text;html=1;strokeColor=none;fillColor=none;align=center;verticalAlign=middle;whiteSpace=wrap;rounded=0;fontFamily=Times New Roman;fontSize=20;fontColor=default;" parent="EwcNz54N74t9UpvTEoii-2" vertex="1">
                    <mxGeometry x="584" y="110" width="60" height="30" as="geometry"/>
                </mxCell>
                <mxCell id="EwcNz54N74t9UpvTEoii-9" value="UE initiates the procedure" style="rounded=1;whiteSpace=wrap;html=1;fontSize=20;fontStyle=1;fontFamily=Times New Roman;" parent="EwcNz54N74t9UpvTEoii-2" vertex="1">
                    <mxGeometry x="370" y="240" width="270" height="50" as="geometry"/>
                </mxCell>
                <mxCell id="EwcNz54N74t9UpvTEoii-10" style="edgeStyle=orthogonalEdgeStyle;rounded=0;orthogonalLoop=1;jettySize=auto;html=1;fontFamily=Times New Roman;fontSize=20;fontColor=#808080;" parent="EwcNz54N74t9UpvTEoii-2" source="EwcNz54N74t9UpvTEoii-5" target="EwcNz54N74t9UpvTEoii-9" edge="1">
                    <mxGeometry relative="1" as="geometry"/>
                </mxCell>
                <mxCell id="EwcNz54N74t9UpvTEoii-11" value="&lt;span style=&quot;color: rgb(0, 0, 0); font-weight: 700;&quot;&gt;upper layers provide an Access Category and one or more Access Identities&lt;/span&gt;" style="rhombus;whiteSpace=wrap;html=1;fontFamily=Times New Roman;fontSize=20;fontColor=#333333;fillColor=#f5f5f5;strokeColor=#666666;" parent="EwcNz54N74t9UpvTEoii-2" vertex="1">
                    <mxGeometry x="370" y="340" width="270" height="120" as="geometry"/>
                </mxCell>
                <mxCell id="EwcNz54N74t9UpvTEoii-12" style="edgeStyle=orthogonalEdgeStyle;rounded=0;orthogonalLoop=1;jettySize=auto;html=1;fontFamily=Times New Roman;fontSize=20;fontColor=#808080;" parent="EwcNz54N74t9UpvTEoii-2" source="EwcNz54N74t9UpvTEoii-9" target="EwcNz54N74t9UpvTEoii-11" edge="1">
                    <mxGeometry relative="1" as="geometry"/>
                </mxCell>
                <mxCell id="EwcNz54N74t9UpvTEoii-13" value="&lt;span id=&quot;docs-internal-guid-6f250543-7fff-b2d6-5344-95b8192d7042&quot; style=&quot;font-size: 20px;&quot;&gt;&lt;span style=&quot;font-size: 20px; background-color: transparent; font-variant-numeric: normal; font-variant-east-asian: normal; vertical-align: baseline;&quot;&gt;Procedure Ends&lt;/span&gt;&lt;/span&gt;" style="rounded=1;whiteSpace=wrap;html=1;fontSize=20;fontStyle=1;fontFamily=Times New Roman;fillColor=#f5f5f5;fontColor=#333333;strokeColor=#666666;" parent="EwcNz54N74t9UpvTEoii-2" vertex="1">
                    <mxGeometry y="240" width="270" height="50" as="geometry"/>
                </mxCell>
                <mxCell id="EwcNz54N74t9UpvTEoii-14" style="edgeStyle=orthogonalEdgeStyle;rounded=0;orthogonalLoop=1;jettySize=auto;html=1;entryX=0.5;entryY=1;entryDx=0;entryDy=0;fontFamily=Times New Roman;fontSize=20;fontColor=#808080;" parent="EwcNz54N74t9UpvTEoii-2" source="EwcNz54N74t9UpvTEoii-11" target="EwcNz54N74t9UpvTEoii-13" edge="1">
                    <mxGeometry relative="1" as="geometry"/>
                </mxCell>
                <mxCell id="EwcNz54N74t9UpvTEoii-15" value="Follow&amp;nbsp;5.3.14" style="rounded=1;whiteSpace=wrap;html=1;fontSize=20;fontStyle=1;fontFamily=Times New Roman;" parent="EwcNz54N74t9UpvTEoii-2" vertex="1">
                    <mxGeometry x="370" y="490" width="270" height="50" as="geometry"/>
                </mxCell>
                <mxCell id="EwcNz54N74t9UpvTEoii-16" style="edgeStyle=orthogonalEdgeStyle;rounded=0;orthogonalLoop=1;jettySize=auto;html=1;fontFamily=Times New Roman;fontSize=20;fontColor=#808080;" parent="EwcNz54N74t9UpvTEoii-2" source="EwcNz54N74t9UpvTEoii-11" target="EwcNz54N74t9UpvTEoii-15" edge="1">
                    <mxGeometry relative="1" as="geometry"/>
                </mxCell>
                <mxCell id="EwcNz54N74t9UpvTEoii-17" value="Apply default L1 parameter values" style="rounded=1;whiteSpace=wrap;html=1;fontSize=20;fontStyle=1;fontFamily=Times New Roman;fillColor=#f5f5f5;fontColor=#333333;strokeColor=#666666;" parent="EwcNz54N74t9UpvTEoii-2" vertex="1">
                    <mxGeometry x="330" y="570" width="350" height="50" as="geometry"/>
                </mxCell>
                <mxCell id="EwcNz54N74t9UpvTEoii-18" style="edgeStyle=orthogonalEdgeStyle;rounded=0;orthogonalLoop=1;jettySize=auto;html=1;fontFamily=Times New Roman;fontSize=20;fontColor=#808080;" parent="EwcNz54N74t9UpvTEoii-2" source="EwcNz54N74t9UpvTEoii-15" target="EwcNz54N74t9UpvTEoii-17" edge="1">
                    <mxGeometry relative="1" as="geometry"/>
                </mxCell>
                <mxCell id="EwcNz54N74t9UpvTEoii-19" value="&lt;font color=&quot;#808080&quot;&gt;&lt;b&gt;YES&lt;/b&gt;&lt;/font&gt;" style="text;html=1;strokeColor=none;fillColor=none;align=center;verticalAlign=middle;whiteSpace=wrap;rounded=0;fontFamily=Times New Roman;fontSize=20;fontColor=default;" parent="EwcNz54N74t9UpvTEoii-2" vertex="1">
                    <mxGeometry x="524" y="460" width="60" height="30" as="geometry"/>
                </mxCell>
                <mxCell id="EwcNz54N74t9UpvTEoii-20" value="&lt;font color=&quot;#808080&quot;&gt;&lt;b&gt;NO&lt;/b&gt;&lt;/font&gt;" style="text;html=1;strokeColor=none;fillColor=none;align=center;verticalAlign=middle;whiteSpace=wrap;rounded=0;fontFamily=Times New Roman;fontSize=20;fontColor=default;" parent="EwcNz54N74t9UpvTEoii-2" vertex="1">
                    <mxGeometry x="230" y="370" width="60" height="30" as="geometry"/>
                </mxCell>
                <mxCell id="EwcNz54N74t9UpvTEoii-21" value="Apply the default MAC Cell Group configuration(9.2.2)" style="rounded=1;whiteSpace=wrap;html=1;fontSize=20;fontStyle=1;fontFamily=Times New Roman;" parent="EwcNz54N74t9UpvTEoii-2" vertex="1">
                    <mxGeometry x="260" y="660" width="490" height="50" as="geometry"/>
                </mxCell>
                <mxCell id="EwcNz54N74t9UpvTEoii-22" style="edgeStyle=orthogonalEdgeStyle;rounded=0;orthogonalLoop=1;jettySize=auto;html=1;fontFamily=Times New Roman;fontSize=20;fontColor=#808080;" parent="EwcNz54N74t9UpvTEoii-2" source="EwcNz54N74t9UpvTEoii-17" target="EwcNz54N74t9UpvTEoii-21" edge="1">
                    <mxGeometry relative="1" as="geometry"/>
                </mxCell>
                <mxCell id="EwcNz54N74t9UpvTEoii-23" value="Apply the CCCH configuration(9.1.1.2)" style="rounded=1;whiteSpace=wrap;html=1;fontSize=20;fontStyle=1;fontFamily=Times New Roman;" parent="EwcNz54N74t9UpvTEoii-2" vertex="1">
                    <mxGeometry x="260" y="750" width="490" height="50" as="geometry"/>
                </mxCell>
                <mxCell id="EwcNz54N74t9UpvTEoii-24" style="edgeStyle=orthogonalEdgeStyle;rounded=0;orthogonalLoop=1;jettySize=auto;html=1;fontFamily=Times New Roman;fontSize=20;fontColor=#808080;" parent="EwcNz54N74t9UpvTEoii-2" source="EwcNz54N74t9UpvTEoii-21" target="EwcNz54N74t9UpvTEoii-23" edge="1">
                    <mxGeometry relative="1" as="geometry"/>
                </mxCell>
                <mxCell id="EwcNz54N74t9UpvTEoii-25" value="Apply the timeAlignmentTimerCommon" style="rounded=1;whiteSpace=wrap;html=1;fontSize=20;fontStyle=1;fontFamily=Times New Roman;fillColor=#f5f5f5;fontColor=#333333;strokeColor=#666666;" parent="EwcNz54N74t9UpvTEoii-2" vertex="1">
                    <mxGeometry x="260" y="830" width="490" height="50" as="geometry"/>
                </mxCell>
                <mxCell id="EwcNz54N74t9UpvTEoii-26" style="edgeStyle=orthogonalEdgeStyle;rounded=0;orthogonalLoop=1;jettySize=auto;html=1;fontFamily=Times New Roman;fontSize=20;fontColor=#808080;" parent="EwcNz54N74t9UpvTEoii-2" source="EwcNz54N74t9UpvTEoii-23" target="EwcNz54N74t9UpvTEoii-25" edge="1">
                    <mxGeometry relative="1" as="geometry"/>
                </mxCell>
                <mxCell id="EwcNz54N74t9UpvTEoii-27" value="Start timer T300" style="rounded=1;whiteSpace=wrap;html=1;fontSize=20;fontStyle=1;fontFamily=Times New Roman;" parent="EwcNz54N74t9UpvTEoii-2" vertex="1">
                    <mxGeometry x="260" y="909" width="490" height="50" as="geometry"/>
                </mxCell>
                <mxCell id="EwcNz54N74t9UpvTEoii-28" style="edgeStyle=orthogonalEdgeStyle;rounded=0;orthogonalLoop=1;jettySize=auto;html=1;fontFamily=Times New Roman;fontSize=20;fontColor=#808080;" parent="EwcNz54N74t9UpvTEoii-2" source="EwcNz54N74t9UpvTEoii-25" target="EwcNz54N74t9UpvTEoii-27" edge="1">
                    <mxGeometry relative="1" as="geometry"/>
                </mxCell>
                <mxCell id="EwcNz54N74t9UpvTEoii-29" value="Initiate transmission of the RRCSetupRequest message" style="rounded=1;whiteSpace=wrap;html=1;fontSize=20;fontStyle=1;fontFamily=Times New Roman;" parent="EwcNz54N74t9UpvTEoii-2" vertex="1">
                    <mxGeometry x="260" y="990" width="490" height="50" as="geometry"/>
                </mxCell>
                <mxCell id="EwcNz54N74t9UpvTEoii-30" style="edgeStyle=orthogonalEdgeStyle;rounded=0;orthogonalLoop=1;jettySize=auto;html=1;fontFamily=Times New Roman;fontSize=20;fontColor=#808080;" parent="EwcNz54N74t9UpvTEoii-2" source="EwcNz54N74t9UpvTEoii-27" target="EwcNz54N74t9UpvTEoii-29" edge="1">
                    <mxGeometry relative="1" as="geometry"/>
                </mxCell>
                <mxCell id="EwcNz54N74t9UpvTEoii-31" value="&lt;span id=&quot;docs-internal-guid-6f250543-7fff-b2d6-5344-95b8192d7042&quot; style=&quot;font-size: 20px;&quot;&gt;&lt;span style=&quot;font-size: 20px; background-color: transparent; font-variant-numeric: normal; font-variant-east-asian: normal; vertical-align: baseline;&quot;&gt;&amp;nbsp;Establish an RRC connection&lt;/span&gt;&lt;/span&gt;" style="rounded=1;whiteSpace=wrap;html=1;fontSize=20;fontStyle=1;fontFamily=Times New Roman;" parent="EwcNz54N74t9UpvTEoii-2" vertex="1">
                    <mxGeometry x="870" y="30" width="270" height="50" as="geometry"/>
                </mxCell>
                <mxCell id="EwcNz54N74t9UpvTEoii-32" value="&lt;font color=&quot;#000000&quot;&gt;&lt;b&gt;T390 is running&lt;/b&gt;&lt;/font&gt;" style="rhombus;whiteSpace=wrap;html=1;fontFamily=Times New Roman;fontSize=20;fontColor=#808080;" parent="EwcNz54N74t9UpvTEoii-2" vertex="1">
                    <mxGeometry x="935" y="130" width="140" height="80" as="geometry"/>
                </mxCell>
                <mxCell id="EwcNz54N74t9UpvTEoii-33" style="edgeStyle=orthogonalEdgeStyle;rounded=0;orthogonalLoop=1;jettySize=auto;html=1;fontFamily=Times New Roman;fontSize=20;fontColor=#808080;" parent="EwcNz54N74t9UpvTEoii-2" source="EwcNz54N74t9UpvTEoii-31" target="EwcNz54N74t9UpvTEoii-32" edge="1">
                    <mxGeometry relative="1" as="geometry"/>
                </mxCell>
                <mxCell id="EwcNz54N74t9UpvTEoii-34" value="Procedure Ends" style="rounded=1;whiteSpace=wrap;html=1;fontSize=20;fontStyle=1;fontFamily=Times New Roman;fillColor=#f5f5f5;fontColor=#333333;strokeColor=#666666;" parent="EwcNz54N74t9UpvTEoii-2" vertex="1">
                    <mxGeometry x="700" y="145" width="190" height="50" as="geometry"/>
                </mxCell>
                <mxCell id="EwcNz54N74t9UpvTEoii-35" style="edgeStyle=orthogonalEdgeStyle;rounded=0;orthogonalLoop=1;jettySize=auto;html=1;fontFamily=Times New Roman;fontSize=20;fontColor=#808080;" parent="EwcNz54N74t9UpvTEoii-2" source="EwcNz54N74t9UpvTEoii-32" target="EwcNz54N74t9UpvTEoii-34" edge="1">
                    <mxGeometry relative="1" as="geometry"/>
                </mxCell>
                <mxCell id="EwcNz54N74t9UpvTEoii-36" value="&lt;font color=&quot;#808080&quot;&gt;&lt;b&gt;YES&lt;/b&gt;&lt;/font&gt;" style="text;html=1;strokeColor=none;fillColor=none;align=center;verticalAlign=middle;whiteSpace=wrap;rounded=0;fontFamily=Times New Roman;fontSize=20;fontColor=default;" parent="EwcNz54N74t9UpvTEoii-2" vertex="1">
                    <mxGeometry x="890" y="140" width="60" height="30" as="geometry"/>
                </mxCell>
                <mxCell id="EwcNz54N74t9UpvTEoii-37" value="&lt;font color=&quot;#000000&quot;&gt;&lt;b&gt;T302 is running&lt;/b&gt;&lt;/font&gt;" style="rhombus;whiteSpace=wrap;html=1;fontFamily=Times New Roman;fontSize=20;fontColor=#808080;" parent="EwcNz54N74t9UpvTEoii-2" vertex="1">
                    <mxGeometry x="935" y="270" width="140" height="80" as="geometry"/>
                </mxCell>
                <mxCell id="EwcNz54N74t9UpvTEoii-38" style="edgeStyle=orthogonalEdgeStyle;rounded=0;orthogonalLoop=1;jettySize=auto;html=1;fontFamily=Times New Roman;fontSize=20;fontColor=#808080;" parent="EwcNz54N74t9UpvTEoii-2" source="EwcNz54N74t9UpvTEoii-32" target="EwcNz54N74t9UpvTEoii-37" edge="1">
                    <mxGeometry relative="1" as="geometry"/>
                </mxCell>
                <mxCell id="EwcNz54N74t9UpvTEoii-39" value="&lt;font color=&quot;#808080&quot;&gt;&lt;b&gt;NO&lt;/b&gt;&lt;/font&gt;" style="text;html=1;strokeColor=none;fillColor=none;align=center;verticalAlign=middle;whiteSpace=wrap;rounded=0;fontFamily=Times New Roman;fontSize=20;fontColor=default;" parent="EwcNz54N74t9UpvTEoii-2" vertex="1">
                    <mxGeometry x="1000" y="220" width="60" height="30" as="geometry"/>
                </mxCell>
                <mxCell id="EwcNz54N74t9UpvTEoii-40" style="edgeStyle=orthogonalEdgeStyle;rounded=0;orthogonalLoop=1;jettySize=auto;html=1;entryX=0.5;entryY=1;entryDx=0;entryDy=0;fontFamily=Times New Roman;fontSize=20;fontColor=#808080;" parent="EwcNz54N74t9UpvTEoii-2" source="EwcNz54N74t9UpvTEoii-41" target="EwcNz54N74t9UpvTEoii-34" edge="1">
                    <mxGeometry relative="1" as="geometry"/>
                </mxCell>
                <mxCell id="EwcNz54N74t9UpvTEoii-41" value="&lt;font color=&quot;#000000&quot;&gt;&lt;b&gt;Access_Category=2 or 0&lt;/b&gt;&lt;/font&gt;" style="rhombus;whiteSpace=wrap;html=1;fontFamily=Times New Roman;fontSize=20;fontColor=#808080;" parent="EwcNz54N74t9UpvTEoii-2" vertex="1">
                    <mxGeometry x="892.5" y="390" width="225" height="80" as="geometry"/>
                </mxCell>
                <mxCell id="EwcNz54N74t9UpvTEoii-42" style="edgeStyle=orthogonalEdgeStyle;rounded=0;orthogonalLoop=1;jettySize=auto;html=1;fontFamily=Times New Roman;fontSize=20;fontColor=#808080;" parent="EwcNz54N74t9UpvTEoii-2" source="EwcNz54N74t9UpvTEoii-37" target="EwcNz54N74t9UpvTEoii-41" edge="1">
                    <mxGeometry relative="1" as="geometry"/>
                </mxCell>
                <mxCell id="EwcNz54N74t9UpvTEoii-43" value="&lt;font color=&quot;#808080&quot;&gt;&lt;b&gt;YES&lt;/b&gt;&lt;/font&gt;" style="text;html=1;strokeColor=none;fillColor=none;align=center;verticalAlign=middle;whiteSpace=wrap;rounded=0;fontFamily=Times New Roman;fontSize=20;fontColor=default;" parent="EwcNz54N74t9UpvTEoii-2" vertex="1">
                    <mxGeometry x="1010" y="350" width="60" height="30" as="geometry"/>
                </mxCell>
                <mxCell id="EwcNz54N74t9UpvTEoii-44" value="&lt;font color=&quot;#000000&quot;&gt;&lt;b&gt;Access_Category=2&lt;/b&gt;&lt;/font&gt;" style="rhombus;whiteSpace=wrap;html=1;fontFamily=Times New Roman;fontSize=20;fontColor=#808080;" parent="EwcNz54N74t9UpvTEoii-2" vertex="1">
                    <mxGeometry x="892.5" y="510" width="225" height="80" as="geometry"/>
                </mxCell>
                <mxCell id="EwcNz54N74t9UpvTEoii-45" style="edgeStyle=orthogonalEdgeStyle;rounded=0;orthogonalLoop=1;jettySize=auto;html=1;fontFamily=Times New Roman;fontSize=20;fontColor=#808080;" parent="EwcNz54N74t9UpvTEoii-2" source="EwcNz54N74t9UpvTEoii-41" target="EwcNz54N74t9UpvTEoii-44" edge="1">
                    <mxGeometry relative="1" as="geometry"/>
                </mxCell>
                <mxCell id="EwcNz54N74t9UpvTEoii-46" value="&lt;font color=&quot;#808080&quot;&gt;&lt;b&gt;YES&lt;/b&gt;&lt;/font&gt;" style="text;html=1;strokeColor=none;fillColor=none;align=center;verticalAlign=middle;whiteSpace=wrap;rounded=0;fontFamily=Times New Roman;fontSize=20;fontColor=default;" parent="EwcNz54N74t9UpvTEoii-2" vertex="1">
                    <mxGeometry x="1110" y="520" width="60" height="30" as="geometry"/>
                </mxCell>
                <mxCell id="EwcNz54N74t9UpvTEoii-47" value="&lt;font color=&quot;#808080&quot;&gt;&lt;b&gt;NO&lt;/b&gt;&lt;/font&gt;" style="text;html=1;strokeColor=none;fillColor=none;align=center;verticalAlign=middle;whiteSpace=wrap;rounded=0;fontFamily=Times New Roman;fontSize=20;fontColor=default;" parent="EwcNz54N74t9UpvTEoii-2" vertex="1">
                    <mxGeometry x="1000" y="470" width="60" height="30" as="geometry"/>
                </mxCell>
                <mxCell id="EwcNz54N74t9UpvTEoii-48" value="&lt;font color=&quot;#808080&quot;&gt;&lt;b&gt;NO&lt;/b&gt;&lt;/font&gt;" style="text;html=1;strokeColor=none;fillColor=none;align=center;verticalAlign=middle;whiteSpace=wrap;rounded=0;fontFamily=Times New Roman;fontSize=20;fontColor=default;" parent="EwcNz54N74t9UpvTEoii-2" vertex="1">
                    <mxGeometry x="817" y="400" width="60" height="30" as="geometry"/>
                </mxCell>
                <mxCell id="EwcNz54N74t9UpvTEoii-49" style="edgeStyle=orthogonalEdgeStyle;rounded=0;orthogonalLoop=1;jettySize=auto;html=1;entryX=0.5;entryY=1;entryDx=0;entryDy=0;fontFamily=Times New Roman;fontSize=20;fontColor=#808080;" parent="EwcNz54N74t9UpvTEoii-2" source="EwcNz54N74t9UpvTEoii-51" target="EwcNz54N74t9UpvTEoii-34" edge="1">
                    <mxGeometry relative="1" as="geometry">
                        <Array as="points">
                            <mxPoint x="795" y="660"/>
                        </Array>
                    </mxGeometry>
                </mxCell>
                <mxCell id="EwcNz54N74t9UpvTEoii-50" style="edgeStyle=orthogonalEdgeStyle;rounded=0;orthogonalLoop=1;jettySize=auto;html=1;entryX=1;entryY=0.5;entryDx=0;entryDy=0;fontFamily=Times New Roman;fontSize=20;fontColor=#808080;" parent="EwcNz54N74t9UpvTEoii-2" source="EwcNz54N74t9UpvTEoii-51" target="EwcNz54N74t9UpvTEoii-21" edge="1">
                    <mxGeometry relative="1" as="geometry"/>
                </mxCell>
                <mxCell id="EwcNz54N74t9UpvTEoii-51" value="&lt;font color=&quot;#000000&quot;&gt;&lt;b&gt;access barring check was requested&lt;/b&gt;&lt;/font&gt;" style="rhombus;whiteSpace=wrap;html=1;fontFamily=Times New Roman;fontSize=20;fontColor=#333333;fillColor=#f5f5f5;strokeColor=#666666;" parent="EwcNz54N74t9UpvTEoii-2" vertex="1">
                    <mxGeometry x="892.5" y="645" width="225" height="80" as="geometry"/>
                </mxCell>
                <mxCell id="EwcNz54N74t9UpvTEoii-52" style="edgeStyle=orthogonalEdgeStyle;rounded=0;orthogonalLoop=1;jettySize=auto;html=1;fontFamily=Times New Roman;fontSize=20;fontColor=#808080;" parent="EwcNz54N74t9UpvTEoii-2" source="EwcNz54N74t9UpvTEoii-44" target="EwcNz54N74t9UpvTEoii-51" edge="1">
                    <mxGeometry relative="1" as="geometry"/>
                </mxCell>
                <mxCell id="EwcNz54N74t9UpvTEoii-53" value="&lt;span id=&quot;docs-internal-guid-6f250543-7fff-b2d6-5344-95b8192d7042&quot; style=&quot;font-size: 20px;&quot;&gt;&lt;span style=&quot;font-size: 20px; background-color: transparent; font-variant-numeric: normal; font-variant-east-asian: normal; vertical-align: baseline;&quot;&gt;ELSE&lt;/span&gt;&lt;/span&gt;" style="rounded=1;whiteSpace=wrap;html=1;fontSize=20;fontStyle=1;fontFamily=Times New Roman;fillColor=#f5f5f5;fontColor=#333333;strokeColor=#666666;" parent="EwcNz54N74t9UpvTEoii-2" vertex="1">
                    <mxGeometry x="1170" y="525" width="100" height="50" as="geometry"/>
                </mxCell>
                <mxCell id="EwcNz54N74t9UpvTEoii-54" style="edgeStyle=orthogonalEdgeStyle;rounded=0;orthogonalLoop=1;jettySize=auto;html=1;fontFamily=Times New Roman;fontSize=20;fontColor=#808080;" parent="EwcNz54N74t9UpvTEoii-2" source="EwcNz54N74t9UpvTEoii-44" target="EwcNz54N74t9UpvTEoii-53" edge="1">
                    <mxGeometry relative="1" as="geometry"/>
                </mxCell>
                <mxCell id="EwcNz54N74t9UpvTEoii-55" style="edgeStyle=orthogonalEdgeStyle;rounded=0;orthogonalLoop=1;jettySize=auto;html=1;entryX=0.5;entryY=1;entryDx=0;entryDy=0;fontFamily=Times New Roman;fontSize=20;fontColor=#808080;" parent="EwcNz54N74t9UpvTEoii-2" source="EwcNz54N74t9UpvTEoii-51" target="EwcNz54N74t9UpvTEoii-53" edge="1">
                    <mxGeometry relative="1" as="geometry"/>
                </mxCell>
                <mxCell id="EwcNz54N74t9UpvTEoii-56" value="&lt;font color=&quot;#808080&quot;&gt;&lt;b&gt;NO&lt;/b&gt;&lt;/font&gt;" style="text;html=1;strokeColor=none;fillColor=none;align=center;verticalAlign=middle;whiteSpace=wrap;rounded=0;fontFamily=Times New Roman;fontSize=20;fontColor=default;" parent="EwcNz54N74t9UpvTEoii-2" vertex="1">
                    <mxGeometry x="817" y="690" width="60" height="30" as="geometry"/>
                </mxCell>
                <mxCell id="EwcNz54N74t9UpvTEoii-57" value="&lt;font color=&quot;#808080&quot;&gt;&lt;b&gt;YES&lt;/b&gt;&lt;/font&gt;" style="text;html=1;strokeColor=none;fillColor=none;align=center;verticalAlign=middle;whiteSpace=wrap;rounded=0;fontFamily=Times New Roman;fontSize=20;fontColor=default;" parent="EwcNz54N74t9UpvTEoii-2" vertex="1">
                    <mxGeometry x="830" y="630" width="60" height="30" as="geometry"/>
                </mxCell>
            </root>
        </mxGraphModel>
    </diagram>
    <diagram id="G6Sp99064H83OwRWWRzO" name="RRCSetUpRequest">
        <mxGraphModel dx="2750" dy="-1676" grid="1" gridSize="10" guides="1" tooltips="1" connect="1" arrows="1" fold="1" page="1" pageScale="1" pageWidth="850" pageHeight="1100" math="0" shadow="0">
            <root>
                <mxCell id="HcNbiPOe6ggSaZb_H2xu-0"/>
                <mxCell id="HcNbiPOe6ggSaZb_H2xu-1" parent="HcNbiPOe6ggSaZb_H2xu-0"/>
                <mxCell id="HcNbiPOe6ggSaZb_H2xu-2" value="" style="group" parent="HcNbiPOe6ggSaZb_H2xu-1" connectable="0" vertex="1">
                    <mxGeometry x="-1420" y="2930" width="605" height="470" as="geometry"/>
                </mxCell>
                <mxCell id="HcNbiPOe6ggSaZb_H2xu-3" value="upper layers provide&lt;br style=&quot;font-size: 15px;&quot;&gt;5G-S-TMSI" style="rhombus;whiteSpace=wrap;html=1;fontFamily=Times New Roman;fontSize=15;" parent="HcNbiPOe6ggSaZb_H2xu-2" vertex="1">
                    <mxGeometry x="275" y="80" width="100" height="100" as="geometry"/>
                </mxCell>
                <mxCell id="HcNbiPOe6ggSaZb_H2xu-4" value="&quot;UE_Identity&quot;:ng-5G-S-TMSI-Part1" style="rounded=0;whiteSpace=wrap;html=1;fontFamily=Times New Roman;fontSize=15;" parent="HcNbiPOe6ggSaZb_H2xu-2" vertex="1">
                    <mxGeometry x="230" y="260" width="190" height="60" as="geometry"/>
                </mxCell>
                <mxCell id="HcNbiPOe6ggSaZb_H2xu-5" style="edgeStyle=orthogonalEdgeStyle;rounded=0;orthogonalLoop=1;jettySize=auto;html=1;fontFamily=Times New Roman;fontSize=15;" parent="HcNbiPOe6ggSaZb_H2xu-2" source="HcNbiPOe6ggSaZb_H2xu-3" target="HcNbiPOe6ggSaZb_H2xu-4" edge="1">
                    <mxGeometry relative="1" as="geometry"/>
                </mxCell>
                <mxCell id="HcNbiPOe6ggSaZb_H2xu-6" value="" style="edgeStyle=orthogonalEdgeStyle;rounded=0;orthogonalLoop=1;jettySize=auto;html=1;fontFamily=Times New Roman;fontSize=20;fontColor=#808080;" parent="HcNbiPOe6ggSaZb_H2xu-2" source="HcNbiPOe6ggSaZb_H2xu-7" target="HcNbiPOe6ggSaZb_H2xu-3" edge="1">
                    <mxGeometry relative="1" as="geometry"/>
                </mxCell>
                <mxCell id="HcNbiPOe6ggSaZb_H2xu-7" value="YES" style="text;html=1;strokeColor=none;fillColor=none;align=center;verticalAlign=middle;whiteSpace=wrap;rounded=0;fontFamily=Times New Roman;fontSize=15;" parent="HcNbiPOe6ggSaZb_H2xu-2" vertex="1">
                    <mxGeometry x="275" y="200" width="60" height="30" as="geometry"/>
                </mxCell>
                <mxCell id="HcNbiPOe6ggSaZb_H2xu-8" value="&quot;UE_Identity&quot;:a 39-bit random value" style="rounded=0;whiteSpace=wrap;html=1;fontFamily=Times New Roman;fontSize=15;" parent="HcNbiPOe6ggSaZb_H2xu-2" vertex="1">
                    <mxGeometry y="100" width="230" height="60" as="geometry"/>
                </mxCell>
                <mxCell id="HcNbiPOe6ggSaZb_H2xu-9" style="edgeStyle=orthogonalEdgeStyle;rounded=0;orthogonalLoop=1;jettySize=auto;html=1;fontFamily=Times New Roman;fontSize=15;" parent="HcNbiPOe6ggSaZb_H2xu-2" source="HcNbiPOe6ggSaZb_H2xu-3" target="HcNbiPOe6ggSaZb_H2xu-8" edge="1">
                    <mxGeometry relative="1" as="geometry"/>
                </mxCell>
                <mxCell id="HcNbiPOe6ggSaZb_H2xu-10" style="edgeStyle=orthogonalEdgeStyle;rounded=0;orthogonalLoop=1;jettySize=auto;html=1;fontFamily=Times New Roman;fontSize=15;" parent="HcNbiPOe6ggSaZb_H2xu-2" source="HcNbiPOe6ggSaZb_H2xu-11" target="HcNbiPOe6ggSaZb_H2xu-3" edge="1">
                    <mxGeometry relative="1" as="geometry"/>
                </mxCell>
                <mxCell id="HcNbiPOe6ggSaZb_H2xu-11" value="&quot;5G-S-TMSI&quot;" style="rounded=0;whiteSpace=wrap;html=1;fontFamily=Times New Roman;fontSize=15;" parent="HcNbiPOe6ggSaZb_H2xu-2" vertex="1">
                    <mxGeometry x="265" width="120" height="60" as="geometry"/>
                </mxCell>
                <mxCell id="HcNbiPOe6ggSaZb_H2xu-12" value="“establishmentCause”:”mo-Signalling”" style="rounded=0;whiteSpace=wrap;html=1;fontFamily=Times New Roman;fontSize=15;" parent="HcNbiPOe6ggSaZb_H2xu-2" vertex="1">
                    <mxGeometry x="75" y="410" width="190" height="60" as="geometry"/>
                </mxCell>
                <mxCell id="HcNbiPOe6ggSaZb_H2xu-13" style="edgeStyle=orthogonalEdgeStyle;rounded=0;orthogonalLoop=1;jettySize=auto;html=1;entryX=0.5;entryY=0;entryDx=0;entryDy=0;fontFamily=Times New Roman;fontSize=15;" parent="HcNbiPOe6ggSaZb_H2xu-2" source="HcNbiPOe6ggSaZb_H2xu-4" target="HcNbiPOe6ggSaZb_H2xu-12" edge="1">
                    <mxGeometry relative="1" as="geometry">
                        <Array as="points">
                            <mxPoint x="325" y="370"/>
                            <mxPoint x="170" y="370"/>
                        </Array>
                    </mxGeometry>
                </mxCell>
                <mxCell id="HcNbiPOe6ggSaZb_H2xu-14" style="edgeStyle=orthogonalEdgeStyle;rounded=0;orthogonalLoop=1;jettySize=auto;html=1;fontFamily=Times New Roman;fontSize=15;" parent="HcNbiPOe6ggSaZb_H2xu-2" source="HcNbiPOe6ggSaZb_H2xu-8" target="HcNbiPOe6ggSaZb_H2xu-12" edge="1">
                    <mxGeometry relative="1" as="geometry">
                        <Array as="points">
                            <mxPoint x="115" y="370"/>
                            <mxPoint x="170" y="370"/>
                        </Array>
                    </mxGeometry>
                </mxCell>
                <mxCell id="HcNbiPOe6ggSaZb_H2xu-15" value="[gNB]:RRCSetupRequest" style="rounded=1;whiteSpace=wrap;html=1;fontFamily=Times New Roman;fontSize=15;" parent="HcNbiPOe6ggSaZb_H2xu-2" vertex="1">
                    <mxGeometry x="395" y="410" width="210" height="60" as="geometry"/>
                </mxCell>
                <mxCell id="HcNbiPOe6ggSaZb_H2xu-16" style="edgeStyle=orthogonalEdgeStyle;rounded=0;orthogonalLoop=1;jettySize=auto;html=1;fontFamily=Times New Roman;fontSize=15;" parent="HcNbiPOe6ggSaZb_H2xu-2" source="HcNbiPOe6ggSaZb_H2xu-12" target="HcNbiPOe6ggSaZb_H2xu-15" edge="1">
                    <mxGeometry relative="1" as="geometry"/>
                </mxCell>
            </root>
        </mxGraphModel>
    </diagram>
    <diagram id="w7GqPcGIdLIWsLZiP9QQ" name="INITIAL_UL_RRC_MESSAGE_TRANSFER">
        <mxGraphModel dx="2750" dy="-4976" grid="1" gridSize="10" guides="1" tooltips="1" connect="1" arrows="1" fold="1" page="1" pageScale="1" pageWidth="850" pageHeight="1100" math="0" shadow="0">
            <root>
                <mxCell id="xxCp7EhQaBBqAfONVUY9-0"/>
                <mxCell id="xxCp7EhQaBBqAfONVUY9-1" parent="xxCp7EhQaBBqAfONVUY9-0"/>
                <mxCell id="xxCp7EhQaBBqAfONVUY9-2" value="" style="group" parent="xxCp7EhQaBBqAfONVUY9-1" vertex="1" connectable="0">
                    <mxGeometry x="-1300" y="5970" width="960" height="1155" as="geometry"/>
                </mxCell>
                <mxCell id="xxCp7EhQaBBqAfONVUY9-3" value="INITIAL_UL_RRC_MESSAGE_TRANSFER" style="rounded=1;whiteSpace=wrap;html=1;fontSize=20;fontStyle=1;fontFamily=Times New Roman;" parent="xxCp7EhQaBBqAfONVUY9-2" vertex="1">
                    <mxGeometry x="270" width="430" height="60" as="geometry"/>
                </mxCell>
                <mxCell id="xxCp7EhQaBBqAfONVUY9-4" value="RRC Container IE" style="rhombus;whiteSpace=wrap;html=1;fontFamily=Times New Roman;fontSize=20;fontStyle=1" parent="xxCp7EhQaBBqAfONVUY9-2" vertex="1">
                    <mxGeometry x="390" y="405" width="190" height="80" as="geometry"/>
                </mxCell>
                <mxCell id="xxCp7EhQaBBqAfONVUY9-5" value="TRANSFER FAILURE" style="rounded=1;whiteSpace=wrap;html=1;fontSize=20;fontStyle=1;fontFamily=Times New Roman;" parent="xxCp7EhQaBBqAfONVUY9-2" vertex="1">
                    <mxGeometry y="415" width="280" height="60" as="geometry"/>
                </mxCell>
                <mxCell id="xxCp7EhQaBBqAfONVUY9-6" style="edgeStyle=orthogonalEdgeStyle;rounded=0;orthogonalLoop=1;jettySize=auto;html=1;fontFamily=Times New Roman;fontSize=20;" parent="xxCp7EhQaBBqAfONVUY9-2" source="xxCp7EhQaBBqAfONVUY9-4" target="xxCp7EhQaBBqAfONVUY9-5" edge="1">
                    <mxGeometry relative="1" as="geometry"/>
                </mxCell>
                <mxCell id="xxCp7EhQaBBqAfONVUY9-7" value="Allow UE access" style="rhombus;whiteSpace=wrap;html=1;fontFamily=Times New Roman;fontSize=20;fontStyle=1" parent="xxCp7EhQaBBqAfONVUY9-2" vertex="1">
                    <mxGeometry x="390" y="545" width="190" height="80" as="geometry"/>
                </mxCell>
                <mxCell id="xxCp7EhQaBBqAfONVUY9-8" style="edgeStyle=orthogonalEdgeStyle;rounded=0;orthogonalLoop=1;jettySize=auto;html=1;fontFamily=Times New Roman;fontSize=20;" parent="xxCp7EhQaBBqAfONVUY9-2" source="xxCp7EhQaBBqAfONVUY9-4" target="xxCp7EhQaBBqAfONVUY9-7" edge="1">
                    <mxGeometry relative="1" as="geometry"/>
                </mxCell>
                <mxCell id="xxCp7EhQaBBqAfONVUY9-9" value="CellGroupConfig in&amp;nbsp;DU to CU RRC Container 38.331 [8]" style="rounded=1;whiteSpace=wrap;html=1;fontSize=20;fontStyle=1;fontFamily=Times New Roman;" parent="xxCp7EhQaBBqAfONVUY9-2" vertex="1">
                    <mxGeometry x="680" y="555" width="280" height="60" as="geometry"/>
                </mxCell>
                <mxCell id="xxCp7EhQaBBqAfONVUY9-10" style="edgeStyle=orthogonalEdgeStyle;rounded=0;orthogonalLoop=1;jettySize=auto;html=1;fontFamily=Times New Roman;fontSize=20;" parent="xxCp7EhQaBBqAfONVUY9-2" source="xxCp7EhQaBBqAfONVUY9-7" target="xxCp7EhQaBBqAfONVUY9-9" edge="1">
                    <mxGeometry relative="1" as="geometry"/>
                </mxCell>
                <mxCell id="xxCp7EhQaBBqAfONVUY9-11" value="gNB-CU shall configure the UE" style="rounded=1;whiteSpace=wrap;html=1;fontSize=20;fontStyle=1;fontFamily=Times New Roman;" parent="xxCp7EhQaBBqAfONVUY9-2" vertex="1">
                    <mxGeometry x="680" y="665" width="280" height="60" as="geometry"/>
                </mxCell>
                <mxCell id="xxCp7EhQaBBqAfONVUY9-12" style="edgeStyle=orthogonalEdgeStyle;rounded=0;orthogonalLoop=1;jettySize=auto;html=1;fontFamily=Times New Roman;fontSize=20;" parent="xxCp7EhQaBBqAfONVUY9-2" source="xxCp7EhQaBBqAfONVUY9-9" target="xxCp7EhQaBBqAfONVUY9-11" edge="1">
                    <mxGeometry relative="1" as="geometry"/>
                </mxCell>
                <mxCell id="xxCp7EhQaBBqAfONVUY9-13" value="Do not contain&amp;nbsp;ReconfigurationWithSync" style="rounded=1;whiteSpace=wrap;html=1;fontSize=20;fontStyle=1;fontFamily=Times New Roman;" parent="xxCp7EhQaBBqAfONVUY9-2" vertex="1">
                    <mxGeometry x="330" y="665" width="310" height="60" as="geometry"/>
                </mxCell>
                <mxCell id="xxCp7EhQaBBqAfONVUY9-14" style="edgeStyle=orthogonalEdgeStyle;rounded=0;orthogonalLoop=1;jettySize=auto;html=1;fontFamily=Times New Roman;fontSize=20;" parent="xxCp7EhQaBBqAfONVUY9-2" source="xxCp7EhQaBBqAfONVUY9-7" target="xxCp7EhQaBBqAfONVUY9-13" edge="1">
                    <mxGeometry relative="1" as="geometry"/>
                </mxCell>
                <mxCell id="xxCp7EhQaBBqAfONVUY9-15" style="edgeStyle=orthogonalEdgeStyle;rounded=0;orthogonalLoop=1;jettySize=auto;html=1;fontFamily=Times New Roman;fontSize=20;" parent="xxCp7EhQaBBqAfONVUY9-2" source="xxCp7EhQaBBqAfONVUY9-11" target="xxCp7EhQaBBqAfONVUY9-13" edge="1">
                    <mxGeometry relative="1" as="geometry"/>
                </mxCell>
                <mxCell id="xxCp7EhQaBBqAfONVUY9-16" value="UE has performed access on SUL carrier" style="rhombus;whiteSpace=wrap;html=1;fontFamily=Times New Roman;fontSize=20;fontStyle=1;fillColor=#f5f5f5;fontColor=#333333;strokeColor=#666666;" parent="xxCp7EhQaBBqAfONVUY9-2" vertex="1">
                    <mxGeometry x="375" y="775" width="220" height="110" as="geometry"/>
                </mxCell>
                <mxCell id="xxCp7EhQaBBqAfONVUY9-17" style="edgeStyle=orthogonalEdgeStyle;rounded=0;orthogonalLoop=1;jettySize=auto;html=1;fontFamily=Times New Roman;fontSize=20;" parent="xxCp7EhQaBBqAfONVUY9-2" source="xxCp7EhQaBBqAfONVUY9-13" target="xxCp7EhQaBBqAfONVUY9-16" edge="1">
                    <mxGeometry relative="1" as="geometry"/>
                </mxCell>
                <mxCell id="xxCp7EhQaBBqAfONVUY9-18" value="SUL Access Indication IE is included" style="rounded=1;whiteSpace=wrap;html=1;fontSize=20;fontStyle=1;fontFamily=Times New Roman;fillColor=#f5f5f5;fontColor=#333333;strokeColor=#666666;" parent="xxCp7EhQaBBqAfONVUY9-2" vertex="1">
                    <mxGeometry x="20" y="800" width="280" height="60" as="geometry"/>
                </mxCell>
                <mxCell id="xxCp7EhQaBBqAfONVUY9-19" style="edgeStyle=orthogonalEdgeStyle;rounded=0;orthogonalLoop=1;jettySize=auto;html=1;fontFamily=Times New Roman;fontSize=20;" parent="xxCp7EhQaBBqAfONVUY9-2" source="xxCp7EhQaBBqAfONVUY9-16" target="xxCp7EhQaBBqAfONVUY9-18" edge="1">
                    <mxGeometry relative="1" as="geometry"/>
                </mxCell>
                <mxCell id="xxCp7EhQaBBqAfONVUY9-20" value="RRC-Container-RRCSetupComplete&amp;nbsp;" style="rhombus;whiteSpace=wrap;html=1;fontFamily=Times New Roman;fontSize=20;fontStyle=1" parent="xxCp7EhQaBBqAfONVUY9-2" vertex="1">
                    <mxGeometry x="375" y="935" width="220" height="110" as="geometry"/>
                </mxCell>
                <mxCell id="xxCp7EhQaBBqAfONVUY9-21" style="edgeStyle=orthogonalEdgeStyle;rounded=0;orthogonalLoop=1;jettySize=auto;html=1;fontFamily=Times New Roman;fontSize=20;" parent="xxCp7EhQaBBqAfONVUY9-2" source="xxCp7EhQaBBqAfONVUY9-16" target="xxCp7EhQaBBqAfONVUY9-20" edge="1">
                    <mxGeometry relative="1" as="geometry"/>
                </mxCell>
                <mxCell id="xxCp7EhQaBBqAfONVUY9-22" style="edgeStyle=orthogonalEdgeStyle;rounded=0;orthogonalLoop=1;jettySize=auto;html=1;entryX=0;entryY=0.5;entryDx=0;entryDy=0;fontFamily=Times New Roman;fontSize=20;exitX=0.5;exitY=1;exitDx=0;exitDy=0;" parent="xxCp7EhQaBBqAfONVUY9-2" source="xxCp7EhQaBBqAfONVUY9-18" target="xxCp7EhQaBBqAfONVUY9-20" edge="1">
                    <mxGeometry relative="1" as="geometry"/>
                </mxCell>
                <mxCell id="xxCp7EhQaBBqAfONVUY9-23" value="Consider in" style="rounded=1;whiteSpace=wrap;html=1;fontSize=20;fontStyle=1;fontFamily=Times New Roman;" parent="xxCp7EhQaBBqAfONVUY9-2" vertex="1">
                    <mxGeometry x="680" y="960" width="280" height="60" as="geometry"/>
                </mxCell>
                <mxCell id="xxCp7EhQaBBqAfONVUY9-24" style="edgeStyle=orthogonalEdgeStyle;rounded=0;orthogonalLoop=1;jettySize=auto;html=1;fontFamily=Times New Roman;fontSize=20;" parent="xxCp7EhQaBBqAfONVUY9-2" source="xxCp7EhQaBBqAfONVUY9-20" target="xxCp7EhQaBBqAfONVUY9-23" edge="1">
                    <mxGeometry relative="1" as="geometry"/>
                </mxCell>
                <mxCell id="xxCp7EhQaBBqAfONVUY9-25" value="Complete" style="rounded=1;whiteSpace=wrap;html=1;fontSize=20;fontStyle=1;fontFamily=Times New Roman;" parent="xxCp7EhQaBBqAfONVUY9-2" vertex="1">
                    <mxGeometry x="345" y="1095" width="280" height="60" as="geometry"/>
                </mxCell>
                <mxCell id="xxCp7EhQaBBqAfONVUY9-26" style="edgeStyle=orthogonalEdgeStyle;rounded=0;orthogonalLoop=1;jettySize=auto;html=1;fontFamily=Times New Roman;fontSize=20;" parent="xxCp7EhQaBBqAfONVUY9-2" source="xxCp7EhQaBBqAfONVUY9-20" target="xxCp7EhQaBBqAfONVUY9-25" edge="1">
                    <mxGeometry relative="1" as="geometry"/>
                </mxCell>
                <mxCell id="xxCp7EhQaBBqAfONVUY9-27" style="edgeStyle=orthogonalEdgeStyle;rounded=0;orthogonalLoop=1;jettySize=auto;html=1;entryX=1;entryY=0.5;entryDx=0;entryDy=0;fontFamily=Times New Roman;fontSize=20;exitX=0.5;exitY=1;exitDx=0;exitDy=0;" parent="xxCp7EhQaBBqAfONVUY9-2" source="xxCp7EhQaBBqAfONVUY9-23" target="xxCp7EhQaBBqAfONVUY9-25" edge="1">
                    <mxGeometry relative="1" as="geometry"/>
                </mxCell>
                <mxCell id="xxCp7EhQaBBqAfONVUY9-28" value="&lt;font color=&quot;#808080&quot;&gt;&lt;b&gt;YES&lt;/b&gt;&lt;/font&gt;" style="text;html=1;strokeColor=none;fillColor=none;align=center;verticalAlign=middle;whiteSpace=wrap;rounded=0;fontFamily=Times New Roman;fontSize=20;fontColor=default;" parent="xxCp7EhQaBBqAfONVUY9-2" vertex="1">
                    <mxGeometry x="480" y="505" width="60" height="30" as="geometry"/>
                </mxCell>
                <mxCell id="xxCp7EhQaBBqAfONVUY9-29" value="&lt;font color=&quot;#808080&quot;&gt;&lt;b&gt;NO&lt;/b&gt;&lt;/font&gt;" style="text;html=1;strokeColor=none;fillColor=none;align=center;verticalAlign=middle;whiteSpace=wrap;rounded=0;fontFamily=Times New Roman;fontSize=20;fontColor=default;" parent="xxCp7EhQaBBqAfONVUY9-2" vertex="1">
                    <mxGeometry x="310" y="415" width="60" height="30" as="geometry"/>
                </mxCell>
                <mxCell id="xxCp7EhQaBBqAfONVUY9-30" value="&lt;font color=&quot;#808080&quot;&gt;&lt;b&gt;YES&lt;/b&gt;&lt;/font&gt;" style="text;html=1;strokeColor=none;fillColor=none;align=center;verticalAlign=middle;whiteSpace=wrap;rounded=0;fontFamily=Times New Roman;fontSize=20;fontColor=default;" parent="xxCp7EhQaBBqAfONVUY9-2" vertex="1">
                    <mxGeometry x="594" y="555" width="60" height="30" as="geometry"/>
                </mxCell>
                <mxCell id="xxCp7EhQaBBqAfONVUY9-31" value="&lt;font color=&quot;#808080&quot;&gt;&lt;b&gt;NO&lt;/b&gt;&lt;/font&gt;" style="text;html=1;strokeColor=none;fillColor=none;align=center;verticalAlign=middle;whiteSpace=wrap;rounded=0;fontFamily=Times New Roman;fontSize=20;fontColor=default;" parent="xxCp7EhQaBBqAfONVUY9-2" vertex="1">
                    <mxGeometry x="480" y="625" width="60" height="30" as="geometry"/>
                </mxCell>
                <mxCell id="xxCp7EhQaBBqAfONVUY9-32" value="&lt;font color=&quot;#808080&quot;&gt;&lt;b&gt;YES&lt;/b&gt;&lt;/font&gt;" style="text;html=1;strokeColor=none;fillColor=none;align=center;verticalAlign=middle;whiteSpace=wrap;rounded=0;fontFamily=Times New Roman;fontSize=20;fontColor=default;" parent="xxCp7EhQaBBqAfONVUY9-2" vertex="1">
                    <mxGeometry x="315" y="800" width="60" height="30" as="geometry"/>
                </mxCell>
                <mxCell id="xxCp7EhQaBBqAfONVUY9-33" value="&lt;font color=&quot;#808080&quot;&gt;&lt;b&gt;NO&lt;/b&gt;&lt;/font&gt;" style="text;html=1;strokeColor=none;fillColor=none;align=center;verticalAlign=middle;whiteSpace=wrap;rounded=0;fontFamily=Times New Roman;fontSize=20;fontColor=default;" parent="xxCp7EhQaBBqAfONVUY9-2" vertex="1">
                    <mxGeometry x="480" y="895" width="60" height="30" as="geometry"/>
                </mxCell>
                <mxCell id="xxCp7EhQaBBqAfONVUY9-34" value="&lt;font color=&quot;#808080&quot;&gt;&lt;b&gt;NO&lt;/b&gt;&lt;/font&gt;" style="text;html=1;strokeColor=none;fillColor=none;align=center;verticalAlign=middle;whiteSpace=wrap;rounded=0;fontFamily=Times New Roman;fontSize=20;fontColor=default;" parent="xxCp7EhQaBBqAfONVUY9-2" vertex="1">
                    <mxGeometry x="480" y="1055" width="60" height="30" as="geometry"/>
                </mxCell>
                <mxCell id="xxCp7EhQaBBqAfONVUY9-35" value="&lt;font color=&quot;#808080&quot;&gt;&lt;b&gt;YES&lt;/b&gt;&lt;/font&gt;" style="text;html=1;strokeColor=none;fillColor=none;align=center;verticalAlign=middle;whiteSpace=wrap;rounded=0;fontFamily=Times New Roman;fontSize=20;fontColor=default;" parent="xxCp7EhQaBBqAfONVUY9-2" vertex="1">
                    <mxGeometry x="610" y="960" width="60" height="30" as="geometry"/>
                </mxCell>
                <mxCell id="xxCp7EhQaBBqAfONVUY9-36" value="Obtain_gNB_DU_UE_F1AP_ID" style="rounded=1;whiteSpace=wrap;html=1;fontFamily=Times New Roman;fontSize=20;fontStyle=1" parent="xxCp7EhQaBBqAfONVUY9-2" vertex="1">
                    <mxGeometry x="335" y="95" width="300" height="60" as="geometry"/>
                </mxCell>
                <mxCell id="xxCp7EhQaBBqAfONVUY9-37" style="edgeStyle=orthogonalEdgeStyle;rounded=0;orthogonalLoop=1;jettySize=auto;html=1;fontFamily=Times New Roman;fontSize=20;" parent="xxCp7EhQaBBqAfONVUY9-2" source="xxCp7EhQaBBqAfONVUY9-3" target="xxCp7EhQaBBqAfONVUY9-36" edge="1">
                    <mxGeometry relative="1" as="geometry"/>
                </mxCell>
                <mxCell id="xxCp7EhQaBBqAfONVUY9-38" value="Empty" style="rhombus;whiteSpace=wrap;html=1;fontFamily=Times New Roman;fontSize=20;fontStyle=1" parent="xxCp7EhQaBBqAfONVUY9-2" vertex="1">
                    <mxGeometry x="390" y="185" width="190" height="80" as="geometry"/>
                </mxCell>
                <mxCell id="xxCp7EhQaBBqAfONVUY9-39" style="edgeStyle=orthogonalEdgeStyle;rounded=0;orthogonalLoop=1;jettySize=auto;html=1;entryX=0.5;entryY=0;entryDx=0;entryDy=0;fontFamily=Times New Roman;fontSize=20;" parent="xxCp7EhQaBBqAfONVUY9-2" source="xxCp7EhQaBBqAfONVUY9-36" target="xxCp7EhQaBBqAfONVUY9-38" edge="1">
                    <mxGeometry relative="1" as="geometry"/>
                </mxCell>
                <mxCell id="xxCp7EhQaBBqAfONVUY9-40" value="Allocate&amp;nbsp;gNB_DU_UE_F1AP_ID" style="rounded=1;whiteSpace=wrap;html=1;fontSize=20;fontStyle=1;fontFamily=Times New Roman;" parent="xxCp7EhQaBBqAfONVUY9-2" vertex="1">
                    <mxGeometry x="680" y="195" width="280" height="60" as="geometry"/>
                </mxCell>
                <mxCell id="xxCp7EhQaBBqAfONVUY9-41" style="edgeStyle=orthogonalEdgeStyle;rounded=0;orthogonalLoop=1;jettySize=auto;html=1;fontFamily=Times New Roman;fontSize=20;" parent="xxCp7EhQaBBqAfONVUY9-2" source="xxCp7EhQaBBqAfONVUY9-38" target="xxCp7EhQaBBqAfONVUY9-40" edge="1">
                    <mxGeometry relative="1" as="geometry"/>
                </mxCell>
                <mxCell id="xxCp7EhQaBBqAfONVUY9-42" style="edgeStyle=orthogonalEdgeStyle;rounded=0;orthogonalLoop=1;jettySize=auto;html=1;entryX=0.5;entryY=0;entryDx=0;entryDy=0;fontFamily=Times New Roman;fontSize=20;" parent="xxCp7EhQaBBqAfONVUY9-2" source="xxCp7EhQaBBqAfONVUY9-43" target="xxCp7EhQaBBqAfONVUY9-4" edge="1">
                    <mxGeometry relative="1" as="geometry"/>
                </mxCell>
                <mxCell id="xxCp7EhQaBBqAfONVUY9-43" value="Allocate_C_RNTI" style="rounded=1;whiteSpace=wrap;html=1;fontSize=20;fontStyle=1;fontFamily=Times New Roman;" parent="xxCp7EhQaBBqAfONVUY9-2" vertex="1">
                    <mxGeometry x="345" y="295" width="280" height="60" as="geometry"/>
                </mxCell>
                <mxCell id="xxCp7EhQaBBqAfONVUY9-44" style="edgeStyle=orthogonalEdgeStyle;rounded=0;orthogonalLoop=1;jettySize=auto;html=1;fontFamily=Times New Roman;fontSize=20;" parent="xxCp7EhQaBBqAfONVUY9-2" source="xxCp7EhQaBBqAfONVUY9-38" target="xxCp7EhQaBBqAfONVUY9-43" edge="1">
                    <mxGeometry relative="1" as="geometry"/>
                </mxCell>
                <mxCell id="xxCp7EhQaBBqAfONVUY9-45" value="&lt;font color=&quot;#808080&quot;&gt;&lt;b&gt;NO&lt;/b&gt;&lt;/font&gt;" style="text;html=1;strokeColor=none;fillColor=none;align=center;verticalAlign=middle;whiteSpace=wrap;rounded=0;fontFamily=Times New Roman;fontSize=20;fontColor=default;" parent="xxCp7EhQaBBqAfONVUY9-2" vertex="1">
                    <mxGeometry x="430" y="265" width="60" height="30" as="geometry"/>
                </mxCell>
                <mxCell id="xxCp7EhQaBBqAfONVUY9-46" value="&lt;font color=&quot;#808080&quot;&gt;&lt;b&gt;YES&lt;/b&gt;&lt;/font&gt;" style="text;html=1;strokeColor=none;fillColor=none;align=center;verticalAlign=middle;whiteSpace=wrap;rounded=0;fontFamily=Times New Roman;fontSize=20;fontColor=default;" parent="xxCp7EhQaBBqAfONVUY9-2" vertex="1">
                    <mxGeometry x="590" y="195" width="60" height="30" as="geometry"/>
                </mxCell>
            </root>
        </mxGraphModel>
    </diagram>
    <diagram id="-vcTvqHNUdTF4YXlSf_i" name="INITIAL_UL_RRC_MESSAGE_TRANSFER">
        <mxGraphModel dx="4325" dy="-4190" grid="1" gridSize="10" guides="1" tooltips="1" connect="1" arrows="1" fold="1" page="1" pageScale="1" pageWidth="850" pageHeight="1100" math="0" shadow="0">
            <root>
                <mxCell id="Fg8RnG6Q3sly9G9Cty0i-0"/>
                <mxCell id="Fg8RnG6Q3sly9G9Cty0i-1" parent="Fg8RnG6Q3sly9G9Cty0i-0"/>
                <mxCell id="Fg8RnG6Q3sly9G9Cty0i-2" value="" style="group" parent="Fg8RnG6Q3sly9G9Cty0i-1" vertex="1" connectable="0">
                    <mxGeometry x="-1300" y="5970" width="960" height="1155" as="geometry"/>
                </mxCell>
                <mxCell id="Fg8RnG6Q3sly9G9Cty0i-3" value="INITIAL_UL_RRC_MESSAGE_TRANSFER" style="rounded=1;whiteSpace=wrap;html=1;fontSize=20;fontStyle=1;fontFamily=Times New Roman;" parent="Fg8RnG6Q3sly9G9Cty0i-2" vertex="1">
                    <mxGeometry x="270" width="430" height="60" as="geometry"/>
                </mxCell>
                <mxCell id="Fg8RnG6Q3sly9G9Cty0i-4" value="RRC Container IE" style="rhombus;whiteSpace=wrap;html=1;fontFamily=Times New Roman;fontSize=20;fontStyle=1" parent="Fg8RnG6Q3sly9G9Cty0i-2" vertex="1">
                    <mxGeometry x="390" y="405" width="190" height="80" as="geometry"/>
                </mxCell>
                <mxCell id="Fg8RnG6Q3sly9G9Cty0i-5" value="TRANSFER FAILURE" style="rounded=1;whiteSpace=wrap;html=1;fontSize=20;fontStyle=1;fontFamily=Times New Roman;" parent="Fg8RnG6Q3sly9G9Cty0i-2" vertex="1">
                    <mxGeometry y="415" width="280" height="60" as="geometry"/>
                </mxCell>
                <mxCell id="Fg8RnG6Q3sly9G9Cty0i-6" style="edgeStyle=orthogonalEdgeStyle;rounded=0;orthogonalLoop=1;jettySize=auto;html=1;fontFamily=Times New Roman;fontSize=20;" parent="Fg8RnG6Q3sly9G9Cty0i-2" source="Fg8RnG6Q3sly9G9Cty0i-4" target="Fg8RnG6Q3sly9G9Cty0i-5" edge="1">
                    <mxGeometry relative="1" as="geometry"/>
                </mxCell>
                <mxCell id="Fg8RnG6Q3sly9G9Cty0i-7" value="Allow UE access" style="rhombus;whiteSpace=wrap;html=1;fontFamily=Times New Roman;fontSize=20;fontStyle=1" parent="Fg8RnG6Q3sly9G9Cty0i-2" vertex="1">
                    <mxGeometry x="390" y="545" width="190" height="80" as="geometry"/>
                </mxCell>
                <mxCell id="Fg8RnG6Q3sly9G9Cty0i-8" style="edgeStyle=orthogonalEdgeStyle;rounded=0;orthogonalLoop=1;jettySize=auto;html=1;fontFamily=Times New Roman;fontSize=20;" parent="Fg8RnG6Q3sly9G9Cty0i-2" source="Fg8RnG6Q3sly9G9Cty0i-4" target="Fg8RnG6Q3sly9G9Cty0i-7" edge="1">
                    <mxGeometry relative="1" as="geometry"/>
                </mxCell>
                <mxCell id="Fg8RnG6Q3sly9G9Cty0i-9" value="CellGroupConfig in&amp;nbsp;DU to CU RRC Container 38.331 [8]" style="rounded=1;whiteSpace=wrap;html=1;fontSize=20;fontStyle=1;fontFamily=Times New Roman;" parent="Fg8RnG6Q3sly9G9Cty0i-2" vertex="1">
                    <mxGeometry x="680" y="555" width="280" height="60" as="geometry"/>
                </mxCell>
                <mxCell id="Fg8RnG6Q3sly9G9Cty0i-10" style="edgeStyle=orthogonalEdgeStyle;rounded=0;orthogonalLoop=1;jettySize=auto;html=1;fontFamily=Times New Roman;fontSize=20;" parent="Fg8RnG6Q3sly9G9Cty0i-2" source="Fg8RnG6Q3sly9G9Cty0i-7" target="Fg8RnG6Q3sly9G9Cty0i-9" edge="1">
                    <mxGeometry relative="1" as="geometry"/>
                </mxCell>
                <mxCell id="Fg8RnG6Q3sly9G9Cty0i-11" value="gNB-CU shall configure the UE" style="rounded=1;whiteSpace=wrap;html=1;fontSize=20;fontStyle=1;fontFamily=Times New Roman;" parent="Fg8RnG6Q3sly9G9Cty0i-2" vertex="1">
                    <mxGeometry x="680" y="665" width="280" height="60" as="geometry"/>
                </mxCell>
                <mxCell id="Fg8RnG6Q3sly9G9Cty0i-12" style="edgeStyle=orthogonalEdgeStyle;rounded=0;orthogonalLoop=1;jettySize=auto;html=1;fontFamily=Times New Roman;fontSize=20;" parent="Fg8RnG6Q3sly9G9Cty0i-2" source="Fg8RnG6Q3sly9G9Cty0i-9" target="Fg8RnG6Q3sly9G9Cty0i-11" edge="1">
                    <mxGeometry relative="1" as="geometry"/>
                </mxCell>
                <mxCell id="Fg8RnG6Q3sly9G9Cty0i-13" value="Do not contain&amp;nbsp;ReconfigurationWithSync" style="rounded=1;whiteSpace=wrap;html=1;fontSize=20;fontStyle=1;fontFamily=Times New Roman;" parent="Fg8RnG6Q3sly9G9Cty0i-2" vertex="1">
                    <mxGeometry x="330" y="665" width="310" height="60" as="geometry"/>
                </mxCell>
                <mxCell id="Fg8RnG6Q3sly9G9Cty0i-14" style="edgeStyle=orthogonalEdgeStyle;rounded=0;orthogonalLoop=1;jettySize=auto;html=1;fontFamily=Times New Roman;fontSize=20;" parent="Fg8RnG6Q3sly9G9Cty0i-2" source="Fg8RnG6Q3sly9G9Cty0i-7" target="Fg8RnG6Q3sly9G9Cty0i-13" edge="1">
                    <mxGeometry relative="1" as="geometry"/>
                </mxCell>
                <mxCell id="Fg8RnG6Q3sly9G9Cty0i-15" style="edgeStyle=orthogonalEdgeStyle;rounded=0;orthogonalLoop=1;jettySize=auto;html=1;fontFamily=Times New Roman;fontSize=20;" parent="Fg8RnG6Q3sly9G9Cty0i-2" source="Fg8RnG6Q3sly9G9Cty0i-11" target="Fg8RnG6Q3sly9G9Cty0i-13" edge="1">
                    <mxGeometry relative="1" as="geometry"/>
                </mxCell>
                <mxCell id="Fg8RnG6Q3sly9G9Cty0i-16" value="UE has performed access on SUL carrier" style="rhombus;whiteSpace=wrap;html=1;fontFamily=Times New Roman;fontSize=20;fontStyle=1;fillColor=#f5f5f5;fontColor=#333333;strokeColor=#666666;" parent="Fg8RnG6Q3sly9G9Cty0i-2" vertex="1">
                    <mxGeometry x="375" y="775" width="220" height="110" as="geometry"/>
                </mxCell>
                <mxCell id="Fg8RnG6Q3sly9G9Cty0i-17" style="edgeStyle=orthogonalEdgeStyle;rounded=0;orthogonalLoop=1;jettySize=auto;html=1;fontFamily=Times New Roman;fontSize=20;" parent="Fg8RnG6Q3sly9G9Cty0i-2" source="Fg8RnG6Q3sly9G9Cty0i-13" target="Fg8RnG6Q3sly9G9Cty0i-16" edge="1">
                    <mxGeometry relative="1" as="geometry"/>
                </mxCell>
                <mxCell id="Fg8RnG6Q3sly9G9Cty0i-18" value="SUL Access Indication IE is included" style="rounded=1;whiteSpace=wrap;html=1;fontSize=20;fontStyle=1;fontFamily=Times New Roman;fillColor=#f5f5f5;fontColor=#333333;strokeColor=#666666;" parent="Fg8RnG6Q3sly9G9Cty0i-2" vertex="1">
                    <mxGeometry x="20" y="800" width="280" height="60" as="geometry"/>
                </mxCell>
                <mxCell id="Fg8RnG6Q3sly9G9Cty0i-19" style="edgeStyle=orthogonalEdgeStyle;rounded=0;orthogonalLoop=1;jettySize=auto;html=1;fontFamily=Times New Roman;fontSize=20;" parent="Fg8RnG6Q3sly9G9Cty0i-2" source="Fg8RnG6Q3sly9G9Cty0i-16" target="Fg8RnG6Q3sly9G9Cty0i-18" edge="1">
                    <mxGeometry relative="1" as="geometry"/>
                </mxCell>
                <mxCell id="Fg8RnG6Q3sly9G9Cty0i-20" value="RRC-Container-RRCSetupComplete&amp;nbsp;" style="rhombus;whiteSpace=wrap;html=1;fontFamily=Times New Roman;fontSize=20;fontStyle=1" parent="Fg8RnG6Q3sly9G9Cty0i-2" vertex="1">
                    <mxGeometry x="375" y="935" width="220" height="110" as="geometry"/>
                </mxCell>
                <mxCell id="Fg8RnG6Q3sly9G9Cty0i-21" style="edgeStyle=orthogonalEdgeStyle;rounded=0;orthogonalLoop=1;jettySize=auto;html=1;fontFamily=Times New Roman;fontSize=20;" parent="Fg8RnG6Q3sly9G9Cty0i-2" source="Fg8RnG6Q3sly9G9Cty0i-16" target="Fg8RnG6Q3sly9G9Cty0i-20" edge="1">
                    <mxGeometry relative="1" as="geometry"/>
                </mxCell>
                <mxCell id="Fg8RnG6Q3sly9G9Cty0i-22" style="edgeStyle=orthogonalEdgeStyle;rounded=0;orthogonalLoop=1;jettySize=auto;html=1;entryX=0;entryY=0.5;entryDx=0;entryDy=0;fontFamily=Times New Roman;fontSize=20;exitX=0.5;exitY=1;exitDx=0;exitDy=0;" parent="Fg8RnG6Q3sly9G9Cty0i-2" source="Fg8RnG6Q3sly9G9Cty0i-18" target="Fg8RnG6Q3sly9G9Cty0i-20" edge="1">
                    <mxGeometry relative="1" as="geometry"/>
                </mxCell>
                <mxCell id="Fg8RnG6Q3sly9G9Cty0i-23" value="Consider in" style="rounded=1;whiteSpace=wrap;html=1;fontSize=20;fontStyle=1;fontFamily=Times New Roman;" parent="Fg8RnG6Q3sly9G9Cty0i-2" vertex="1">
                    <mxGeometry x="680" y="960" width="280" height="60" as="geometry"/>
                </mxCell>
                <mxCell id="Fg8RnG6Q3sly9G9Cty0i-24" style="edgeStyle=orthogonalEdgeStyle;rounded=0;orthogonalLoop=1;jettySize=auto;html=1;fontFamily=Times New Roman;fontSize=20;" parent="Fg8RnG6Q3sly9G9Cty0i-2" source="Fg8RnG6Q3sly9G9Cty0i-20" target="Fg8RnG6Q3sly9G9Cty0i-23" edge="1">
                    <mxGeometry relative="1" as="geometry"/>
                </mxCell>
                <mxCell id="Fg8RnG6Q3sly9G9Cty0i-25" value="Complete" style="rounded=1;whiteSpace=wrap;html=1;fontSize=20;fontStyle=1;fontFamily=Times New Roman;" parent="Fg8RnG6Q3sly9G9Cty0i-2" vertex="1">
                    <mxGeometry x="345" y="1095" width="280" height="60" as="geometry"/>
                </mxCell>
                <mxCell id="Fg8RnG6Q3sly9G9Cty0i-26" style="edgeStyle=orthogonalEdgeStyle;rounded=0;orthogonalLoop=1;jettySize=auto;html=1;fontFamily=Times New Roman;fontSize=20;" parent="Fg8RnG6Q3sly9G9Cty0i-2" source="Fg8RnG6Q3sly9G9Cty0i-20" target="Fg8RnG6Q3sly9G9Cty0i-25" edge="1">
                    <mxGeometry relative="1" as="geometry"/>
                </mxCell>
                <mxCell id="Fg8RnG6Q3sly9G9Cty0i-27" style="edgeStyle=orthogonalEdgeStyle;rounded=0;orthogonalLoop=1;jettySize=auto;html=1;entryX=1;entryY=0.5;entryDx=0;entryDy=0;fontFamily=Times New Roman;fontSize=20;exitX=0.5;exitY=1;exitDx=0;exitDy=0;" parent="Fg8RnG6Q3sly9G9Cty0i-2" source="Fg8RnG6Q3sly9G9Cty0i-23" target="Fg8RnG6Q3sly9G9Cty0i-25" edge="1">
                    <mxGeometry relative="1" as="geometry"/>
                </mxCell>
                <mxCell id="Fg8RnG6Q3sly9G9Cty0i-28" value="&lt;font color=&quot;#808080&quot;&gt;&lt;b&gt;YES&lt;/b&gt;&lt;/font&gt;" style="text;html=1;strokeColor=none;fillColor=none;align=center;verticalAlign=middle;whiteSpace=wrap;rounded=0;fontFamily=Times New Roman;fontSize=20;fontColor=default;" parent="Fg8RnG6Q3sly9G9Cty0i-2" vertex="1">
                    <mxGeometry x="480" y="505" width="60" height="30" as="geometry"/>
                </mxCell>
                <mxCell id="Fg8RnG6Q3sly9G9Cty0i-29" value="&lt;font color=&quot;#808080&quot;&gt;&lt;b&gt;NO&lt;/b&gt;&lt;/font&gt;" style="text;html=1;strokeColor=none;fillColor=none;align=center;verticalAlign=middle;whiteSpace=wrap;rounded=0;fontFamily=Times New Roman;fontSize=20;fontColor=default;" parent="Fg8RnG6Q3sly9G9Cty0i-2" vertex="1">
                    <mxGeometry x="310" y="415" width="60" height="30" as="geometry"/>
                </mxCell>
                <mxCell id="Fg8RnG6Q3sly9G9Cty0i-30" value="&lt;font color=&quot;#808080&quot;&gt;&lt;b&gt;YES&lt;/b&gt;&lt;/font&gt;" style="text;html=1;strokeColor=none;fillColor=none;align=center;verticalAlign=middle;whiteSpace=wrap;rounded=0;fontFamily=Times New Roman;fontSize=20;fontColor=default;" parent="Fg8RnG6Q3sly9G9Cty0i-2" vertex="1">
                    <mxGeometry x="594" y="555" width="60" height="30" as="geometry"/>
                </mxCell>
                <mxCell id="Fg8RnG6Q3sly9G9Cty0i-31" value="&lt;font color=&quot;#808080&quot;&gt;&lt;b&gt;NO&lt;/b&gt;&lt;/font&gt;" style="text;html=1;strokeColor=none;fillColor=none;align=center;verticalAlign=middle;whiteSpace=wrap;rounded=0;fontFamily=Times New Roman;fontSize=20;fontColor=default;" parent="Fg8RnG6Q3sly9G9Cty0i-2" vertex="1">
                    <mxGeometry x="480" y="625" width="60" height="30" as="geometry"/>
                </mxCell>
                <mxCell id="Fg8RnG6Q3sly9G9Cty0i-32" value="&lt;font color=&quot;#808080&quot;&gt;&lt;b&gt;YES&lt;/b&gt;&lt;/font&gt;" style="text;html=1;strokeColor=none;fillColor=none;align=center;verticalAlign=middle;whiteSpace=wrap;rounded=0;fontFamily=Times New Roman;fontSize=20;fontColor=default;" parent="Fg8RnG6Q3sly9G9Cty0i-2" vertex="1">
                    <mxGeometry x="315" y="800" width="60" height="30" as="geometry"/>
                </mxCell>
                <mxCell id="Fg8RnG6Q3sly9G9Cty0i-33" value="&lt;font color=&quot;#808080&quot;&gt;&lt;b&gt;NO&lt;/b&gt;&lt;/font&gt;" style="text;html=1;strokeColor=none;fillColor=none;align=center;verticalAlign=middle;whiteSpace=wrap;rounded=0;fontFamily=Times New Roman;fontSize=20;fontColor=default;" parent="Fg8RnG6Q3sly9G9Cty0i-2" vertex="1">
                    <mxGeometry x="480" y="895" width="60" height="30" as="geometry"/>
                </mxCell>
                <mxCell id="Fg8RnG6Q3sly9G9Cty0i-34" value="&lt;font color=&quot;#808080&quot;&gt;&lt;b&gt;NO&lt;/b&gt;&lt;/font&gt;" style="text;html=1;strokeColor=none;fillColor=none;align=center;verticalAlign=middle;whiteSpace=wrap;rounded=0;fontFamily=Times New Roman;fontSize=20;fontColor=default;" parent="Fg8RnG6Q3sly9G9Cty0i-2" vertex="1">
                    <mxGeometry x="480" y="1055" width="60" height="30" as="geometry"/>
                </mxCell>
                <mxCell id="Fg8RnG6Q3sly9G9Cty0i-35" value="&lt;font color=&quot;#808080&quot;&gt;&lt;b&gt;YES&lt;/b&gt;&lt;/font&gt;" style="text;html=1;strokeColor=none;fillColor=none;align=center;verticalAlign=middle;whiteSpace=wrap;rounded=0;fontFamily=Times New Roman;fontSize=20;fontColor=default;" parent="Fg8RnG6Q3sly9G9Cty0i-2" vertex="1">
                    <mxGeometry x="610" y="960" width="60" height="30" as="geometry"/>
                </mxCell>
                <mxCell id="Fg8RnG6Q3sly9G9Cty0i-36" value="Obtain_gNB_DU_UE_F1AP_ID" style="rounded=1;whiteSpace=wrap;html=1;fontFamily=Times New Roman;fontSize=20;fontStyle=1" parent="Fg8RnG6Q3sly9G9Cty0i-2" vertex="1">
                    <mxGeometry x="335" y="95" width="300" height="60" as="geometry"/>
                </mxCell>
                <mxCell id="Fg8RnG6Q3sly9G9Cty0i-37" style="edgeStyle=orthogonalEdgeStyle;rounded=0;orthogonalLoop=1;jettySize=auto;html=1;fontFamily=Times New Roman;fontSize=20;" parent="Fg8RnG6Q3sly9G9Cty0i-2" source="Fg8RnG6Q3sly9G9Cty0i-3" target="Fg8RnG6Q3sly9G9Cty0i-36" edge="1">
                    <mxGeometry relative="1" as="geometry"/>
                </mxCell>
                <mxCell id="Fg8RnG6Q3sly9G9Cty0i-38" value="Empty" style="rhombus;whiteSpace=wrap;html=1;fontFamily=Times New Roman;fontSize=20;fontStyle=1" parent="Fg8RnG6Q3sly9G9Cty0i-2" vertex="1">
                    <mxGeometry x="390" y="185" width="190" height="80" as="geometry"/>
                </mxCell>
                <mxCell id="Fg8RnG6Q3sly9G9Cty0i-39" style="edgeStyle=orthogonalEdgeStyle;rounded=0;orthogonalLoop=1;jettySize=auto;html=1;entryX=0.5;entryY=0;entryDx=0;entryDy=0;fontFamily=Times New Roman;fontSize=20;" parent="Fg8RnG6Q3sly9G9Cty0i-2" source="Fg8RnG6Q3sly9G9Cty0i-36" target="Fg8RnG6Q3sly9G9Cty0i-38" edge="1">
                    <mxGeometry relative="1" as="geometry"/>
                </mxCell>
                <mxCell id="Fg8RnG6Q3sly9G9Cty0i-40" value="Allocate&amp;nbsp;gNB_DU_UE_F1AP_ID" style="rounded=1;whiteSpace=wrap;html=1;fontSize=20;fontStyle=1;fontFamily=Times New Roman;" parent="Fg8RnG6Q3sly9G9Cty0i-2" vertex="1">
                    <mxGeometry x="680" y="195" width="280" height="60" as="geometry"/>
                </mxCell>
                <mxCell id="Fg8RnG6Q3sly9G9Cty0i-41" style="edgeStyle=orthogonalEdgeStyle;rounded=0;orthogonalLoop=1;jettySize=auto;html=1;fontFamily=Times New Roman;fontSize=20;" parent="Fg8RnG6Q3sly9G9Cty0i-2" source="Fg8RnG6Q3sly9G9Cty0i-38" target="Fg8RnG6Q3sly9G9Cty0i-40" edge="1">
                    <mxGeometry relative="1" as="geometry"/>
                </mxCell>
                <mxCell id="Fg8RnG6Q3sly9G9Cty0i-42" style="edgeStyle=orthogonalEdgeStyle;rounded=0;orthogonalLoop=1;jettySize=auto;html=1;entryX=0.5;entryY=0;entryDx=0;entryDy=0;fontFamily=Times New Roman;fontSize=20;" parent="Fg8RnG6Q3sly9G9Cty0i-2" source="Fg8RnG6Q3sly9G9Cty0i-43" target="Fg8RnG6Q3sly9G9Cty0i-4" edge="1">
                    <mxGeometry relative="1" as="geometry"/>
                </mxCell>
                <mxCell id="Fg8RnG6Q3sly9G9Cty0i-43" value="Allocate_C_RNTI" style="rounded=1;whiteSpace=wrap;html=1;fontSize=20;fontStyle=1;fontFamily=Times New Roman;" parent="Fg8RnG6Q3sly9G9Cty0i-2" vertex="1">
                    <mxGeometry x="345" y="295" width="280" height="60" as="geometry"/>
                </mxCell>
                <mxCell id="Fg8RnG6Q3sly9G9Cty0i-44" style="edgeStyle=orthogonalEdgeStyle;rounded=0;orthogonalLoop=1;jettySize=auto;html=1;fontFamily=Times New Roman;fontSize=20;" parent="Fg8RnG6Q3sly9G9Cty0i-2" source="Fg8RnG6Q3sly9G9Cty0i-38" target="Fg8RnG6Q3sly9G9Cty0i-43" edge="1">
                    <mxGeometry relative="1" as="geometry"/>
                </mxCell>
                <mxCell id="Fg8RnG6Q3sly9G9Cty0i-45" value="&lt;font color=&quot;#808080&quot;&gt;&lt;b&gt;NO&lt;/b&gt;&lt;/font&gt;" style="text;html=1;strokeColor=none;fillColor=none;align=center;verticalAlign=middle;whiteSpace=wrap;rounded=0;fontFamily=Times New Roman;fontSize=20;fontColor=default;" parent="Fg8RnG6Q3sly9G9Cty0i-2" vertex="1">
                    <mxGeometry x="430" y="265" width="60" height="30" as="geometry"/>
                </mxCell>
                <mxCell id="Fg8RnG6Q3sly9G9Cty0i-46" value="&lt;font color=&quot;#808080&quot;&gt;&lt;b&gt;YES&lt;/b&gt;&lt;/font&gt;" style="text;html=1;strokeColor=none;fillColor=none;align=center;verticalAlign=middle;whiteSpace=wrap;rounded=0;fontFamily=Times New Roman;fontSize=20;fontColor=default;" parent="Fg8RnG6Q3sly9G9Cty0i-2" vertex="1">
                    <mxGeometry x="590" y="195" width="60" height="30" as="geometry"/>
                </mxCell>
            </root>
        </mxGraphModel>
    </diagram>
    <diagram id="WwwP-12kMbVQZA7yzIn7" name="DL RRC MESSAGE TRANSFER">
        <mxGraphModel dx="1900" dy="524" grid="1" gridSize="10" guides="1" tooltips="1" connect="1" arrows="1" fold="1" page="1" pageScale="1" pageWidth="850" pageHeight="1100" math="0" shadow="0">
            <root>
                <mxCell id="cVtck4FJjnXxOCOkSIwr-0"/>
                <mxCell id="cVtck4FJjnXxOCOkSIwr-1" parent="cVtck4FJjnXxOCOkSIwr-0"/>
                <mxCell id="cVtck4FJjnXxOCOkSIwr-4" style="edgeStyle=none;html=1;entryX=0.5;entryY=0;entryDx=0;entryDy=0;fontFamily=Times New Roman;fontSize=20;" parent="cVtck4FJjnXxOCOkSIwr-1" source="cVtck4FJjnXxOCOkSIwr-2" target="cVtck4FJjnXxOCOkSIwr-3" edge="1">
                    <mxGeometry relative="1" as="geometry"/>
                </mxCell>
                <mxCell id="cVtck4FJjnXxOCOkSIwr-2" value="&lt;span id=&quot;docs-internal-guid-71783977-7fff-e65a-4a16-888c71d1ddcc&quot; style=&quot;font-size: 20px;&quot;&gt;&lt;h3 dir=&quot;ltr&quot; style=&quot;line-height: 1.38; margin-top: 0pt; margin-bottom: 0pt; font-size: 20px;&quot;&gt;&lt;span style=&quot;font-size: 20px; background-color: transparent; vertical-align: baseline;&quot;&gt;DL RRC MESSAGE TRANSFER&lt;/span&gt;&lt;/h3&gt;&lt;/span&gt;" style="rounded=0;whiteSpace=wrap;html=1;fontSize=20;fontStyle=1;fontFamily=Times New Roman;" parent="cVtck4FJjnXxOCOkSIwr-1" vertex="1">
                    <mxGeometry x="110" y="190" width="350" height="60" as="geometry"/>
                </mxCell>
                <mxCell id="XvNYeXSCzheG-u6AtkBI-1" style="edgeStyle=none;html=1;fontFamily=Times New Roman;fontSize=20;" parent="cVtck4FJjnXxOCOkSIwr-1" source="cVtck4FJjnXxOCOkSIwr-3" target="XvNYeXSCzheG-u6AtkBI-0" edge="1">
                    <mxGeometry relative="1" as="geometry"/>
                </mxCell>
                <mxCell id="XvNYeXSCzheG-u6AtkBI-3" style="edgeStyle=none;html=1;fontFamily=Times New Roman;fontSize=20;" parent="cVtck4FJjnXxOCOkSIwr-1" source="cVtck4FJjnXxOCOkSIwr-3" target="XvNYeXSCzheG-u6AtkBI-2" edge="1">
                    <mxGeometry relative="1" as="geometry"/>
                </mxCell>
                <mxCell id="cVtck4FJjnXxOCOkSIwr-3" value="UE-associated logical F1-connection exists" style="rhombus;whiteSpace=wrap;html=1;fontFamily=Times New Roman;fontSize=20;fontStyle=1" parent="cVtck4FJjnXxOCOkSIwr-1" vertex="1">
                    <mxGeometry x="165" y="290" width="240" height="80" as="geometry"/>
                </mxCell>
                <mxCell id="RZ4G4s4tMBURQcN5x15n-2" style="edgeStyle=none;html=1;entryX=0.5;entryY=0;entryDx=0;entryDy=0;fontFamily=Times New Roman;fontSize=20;" parent="cVtck4FJjnXxOCOkSIwr-1" source="XvNYeXSCzheG-u6AtkBI-0" target="RZ4G4s4tMBURQcN5x15n-1" edge="1">
                    <mxGeometry relative="1" as="geometry"/>
                </mxCell>
                <mxCell id="XvNYeXSCzheG-u6AtkBI-0" value="&lt;span id=&quot;docs-internal-guid-71783977-7fff-e65a-4a16-888c71d1ddcc&quot; style=&quot;font-size: 20px&quot;&gt;&lt;h3 dir=&quot;ltr&quot; style=&quot;line-height: 1.38 ; margin-top: 0pt ; margin-bottom: 0pt ; font-size: 20px&quot;&gt;&lt;span style=&quot;font-size: 20px ; background-color: transparent ; vertical-align: baseline&quot;&gt;DL RRC MESSAGE TRANSFER contain the gNBDU UE F1AP ID&lt;/span&gt;&lt;/h3&gt;&lt;/span&gt;" style="rounded=0;whiteSpace=wrap;html=1;fontSize=20;fontStyle=1;fontFamily=Times New Roman;" parent="cVtck4FJjnXxOCOkSIwr-1" vertex="1">
                    <mxGeometry x="110" y="420" width="350" height="60" as="geometry"/>
                </mxCell>
                <mxCell id="XvNYeXSCzheG-u6AtkBI-2" value="&lt;span id=&quot;docs-internal-guid-71783977-7fff-e65a-4a16-888c71d1ddcc&quot; style=&quot;font-size: 20px&quot;&gt;&lt;h3 dir=&quot;ltr&quot; style=&quot;line-height: 1.38 ; margin-top: 0pt ; margin-bottom: 0pt ; font-size: 20px&quot;&gt;&lt;span style=&quot;font-size: 20px ; background-color: transparent ; vertical-align: baseline&quot;&gt;Llogical F1-connection shall be established&amp;nbsp;&lt;/span&gt;&lt;/h3&gt;&lt;/span&gt;" style="rounded=0;whiteSpace=wrap;html=1;fontSize=20;fontStyle=1;fontFamily=Times New Roman;" parent="cVtck4FJjnXxOCOkSIwr-1" vertex="1">
                    <mxGeometry x="-280" y="300" width="350" height="60" as="geometry"/>
                </mxCell>
                <mxCell id="j0zFKlJUhK0NwyqozHN_-0" value="&lt;font color=&quot;#808080&quot;&gt;&lt;b&gt;NO&lt;/b&gt;&lt;/font&gt;" style="text;html=1;strokeColor=none;fillColor=none;align=center;verticalAlign=middle;whiteSpace=wrap;rounded=0;fontFamily=Times New Roman;fontSize=20;fontColor=default;" parent="cVtck4FJjnXxOCOkSIwr-1" vertex="1">
                    <mxGeometry x="90" y="300" width="60" height="30" as="geometry"/>
                </mxCell>
                <mxCell id="j0zFKlJUhK0NwyqozHN_-1" value="&lt;font color=&quot;#808080&quot;&gt;&lt;b&gt;YES&lt;/b&gt;&lt;/font&gt;" style="text;html=1;strokeColor=none;fillColor=none;align=center;verticalAlign=middle;whiteSpace=wrap;rounded=0;fontFamily=Times New Roman;fontSize=20;fontColor=default;" parent="cVtck4FJjnXxOCOkSIwr-1" vertex="1">
                    <mxGeometry x="280" y="380" width="60" height="30" as="geometry"/>
                </mxCell>
                <mxCell id="RZ4G4s4tMBURQcN5x15n-5" style="edgeStyle=none;html=1;fontFamily=Times New Roman;fontSize=20;" parent="cVtck4FJjnXxOCOkSIwr-1" source="RZ4G4s4tMBURQcN5x15n-1" target="RZ4G4s4tMBURQcN5x15n-4" edge="1">
                    <mxGeometry relative="1" as="geometry"/>
                </mxCell>
                <mxCell id="5l0GrJtP1CWsg4SSQHkJ-1" style="edgeStyle=none;html=1;fontFamily=Times New Roman;fontSize=20;" parent="cVtck4FJjnXxOCOkSIwr-1" source="RZ4G4s4tMBURQcN5x15n-1" target="5l0GrJtP1CWsg4SSQHkJ-0" edge="1">
                    <mxGeometry relative="1" as="geometry"/>
                </mxCell>
                <mxCell id="RZ4G4s4tMBURQcN5x15n-1" value="&lt;span style=&quot;font-size: 20px; text-align: left;&quot;&gt;Index to RAT/Frequency&lt;/span&gt;" style="rhombus;whiteSpace=wrap;html=1;fontFamily=Times New Roman;fontSize=20;fontStyle=1" parent="cVtck4FJjnXxOCOkSIwr-1" vertex="1">
                    <mxGeometry x="165" y="530" width="240" height="80" as="geometry"/>
                </mxCell>
                <mxCell id="RZ4G4s4tMBURQcN5x15n-4" value="&lt;span id=&quot;docs-internal-guid-71783977-7fff-e65a-4a16-888c71d1ddcc&quot; style=&quot;font-size: 20px&quot;&gt;&lt;h3 dir=&quot;ltr&quot; style=&quot;line-height: 1.38 ; margin-top: 0pt ; margin-bottom: 0pt ; font-size: 20px&quot;&gt;use it for RRM&amp;nbsp;&lt;br&gt;&lt;/h3&gt;&lt;/span&gt;" style="rounded=0;whiteSpace=wrap;html=1;fontSize=20;fontStyle=1;fontFamily=Times New Roman;" parent="cVtck4FJjnXxOCOkSIwr-1" vertex="1">
                    <mxGeometry x="490" y="540" width="350" height="60" as="geometry"/>
                </mxCell>
                <mxCell id="RZ4G4s4tMBURQcN5x15n-6" value="&lt;font color=&quot;#808080&quot;&gt;&lt;b&gt;YES&lt;/b&gt;&lt;/font&gt;" style="text;html=1;strokeColor=none;fillColor=none;align=center;verticalAlign=middle;whiteSpace=wrap;rounded=0;fontFamily=Times New Roman;fontSize=20;fontColor=default;" parent="cVtck4FJjnXxOCOkSIwr-1" vertex="1">
                    <mxGeometry x="410" y="540" width="60" height="30" as="geometry"/>
                </mxCell>
                <mxCell id="RZ4G4s4tMBURQcN5x15n-7" value="&lt;font color=&quot;#808080&quot;&gt;&lt;b&gt;NO&lt;/b&gt;&lt;/font&gt;" style="text;html=1;strokeColor=none;fillColor=none;align=center;verticalAlign=middle;whiteSpace=wrap;rounded=0;fontFamily=Times New Roman;fontSize=20;fontColor=default;" parent="cVtck4FJjnXxOCOkSIwr-1" vertex="1">
                    <mxGeometry x="290" y="630" width="60" height="30" as="geometry"/>
                </mxCell>
                <mxCell id="5l0GrJtP1CWsg4SSQHkJ-3" style="edgeStyle=none;html=1;fontFamily=Times New Roman;fontSize=20;" parent="cVtck4FJjnXxOCOkSIwr-1" source="5l0GrJtP1CWsg4SSQHkJ-0" target="5l0GrJtP1CWsg4SSQHkJ-2" edge="1">
                    <mxGeometry relative="1" as="geometry"/>
                </mxCell>
                <mxCell id="5l0GrJtP1CWsg4SSQHkJ-0" value="&lt;span id=&quot;docs-internal-guid-71783977-7fff-e65a-4a16-888c71d1ddcc&quot; style=&quot;font-size: 20px&quot;&gt;&lt;h3 dir=&quot;ltr&quot; style=&quot;line-height: 1.38 ; margin-top: 0pt ; margin-bottom: 0pt ; font-size: 20px&quot;&gt;&lt;span style=&quot;font-size: 20px ; background-color: transparent ; vertical-align: baseline&quot;&gt;Allocate new&amp;nbsp;&lt;/span&gt;gNB_DU_UE_F1AP_ID&amp;nbsp;&lt;/h3&gt;&lt;/span&gt;" style="rounded=0;whiteSpace=wrap;html=1;fontSize=20;fontStyle=1;fontFamily=Times New Roman;" parent="cVtck4FJjnXxOCOkSIwr-1" vertex="1">
                    <mxGeometry x="110" y="680" width="350" height="60" as="geometry"/>
                </mxCell>
                <mxCell id="5l0GrJtP1CWsg4SSQHkJ-5" style="edgeStyle=none;html=1;fontFamily=Times New Roman;fontSize=20;" parent="cVtck4FJjnXxOCOkSIwr-1" source="5l0GrJtP1CWsg4SSQHkJ-2" target="5l0GrJtP1CWsg4SSQHkJ-4" edge="1">
                    <mxGeometry relative="1" as="geometry"/>
                </mxCell>
                <mxCell id="5l0GrJtP1CWsg4SSQHkJ-2" value="&lt;span id=&quot;docs-internal-guid-71783977-7fff-e65a-4a16-888c71d1ddcc&quot; style=&quot;font-size: 20px&quot;&gt;&lt;h3 dir=&quot;ltr&quot; style=&quot;line-height: 1.38 ; margin-top: 0pt ; margin-bottom: 0pt ; font-size: 20px&quot;&gt;&lt;span style=&quot;font-size: 20px ; background-color: transparent ; vertical-align: baseline&quot;&gt;Allocate&amp;nbsp;&lt;/span&gt;gNB_CU_UE_F1AP_ID&amp;nbsp;&lt;/h3&gt;&lt;/span&gt;" style="rounded=0;whiteSpace=wrap;html=1;fontSize=20;fontStyle=1;fontFamily=Times New Roman;" parent="cVtck4FJjnXxOCOkSIwr-1" vertex="1">
                    <mxGeometry x="110" y="800" width="350" height="60" as="geometry"/>
                </mxCell>
                <mxCell id="5l0GrJtP1CWsg4SSQHkJ-7" style="edgeStyle=none;html=1;fontFamily=Times New Roman;fontSize=20;" parent="cVtck4FJjnXxOCOkSIwr-1" source="5l0GrJtP1CWsg4SSQHkJ-4" target="5l0GrJtP1CWsg4SSQHkJ-6" edge="1">
                    <mxGeometry relative="1" as="geometry"/>
                </mxCell>
                <mxCell id="5l0GrJtP1CWsg4SSQHkJ-9" style="edgeStyle=none;html=1;fontFamily=Times New Roman;fontSize=20;entryX=0.5;entryY=0;entryDx=0;entryDy=0;" parent="cVtck4FJjnXxOCOkSIwr-1" source="5l0GrJtP1CWsg4SSQHkJ-4" target="5l0GrJtP1CWsg4SSQHkJ-13" edge="1">
                    <mxGeometry relative="1" as="geometry">
                        <mxPoint x="285" y="1060" as="targetPoint"/>
                    </mxGeometry>
                </mxCell>
                <mxCell id="5l0GrJtP1CWsg4SSQHkJ-4" value="&lt;div&gt;&lt;span&gt;SRB duplication is activated&lt;/span&gt;&lt;/div&gt;" style="rhombus;whiteSpace=wrap;html=1;fontFamily=Times New Roman;fontSize=20;fontStyle=1;align=center;" parent="cVtck4FJjnXxOCOkSIwr-1" vertex="1">
                    <mxGeometry x="165" y="910" width="240" height="80" as="geometry"/>
                </mxCell>
                <mxCell id="5l0GrJtP1CWsg4SSQHkJ-16" style="edgeStyle=none;html=1;entryX=0;entryY=0.5;entryDx=0;entryDy=0;fontFamily=Times New Roman;fontSize=20;rounded=0;" parent="cVtck4FJjnXxOCOkSIwr-1" source="5l0GrJtP1CWsg4SSQHkJ-6" target="5l0GrJtP1CWsg4SSQHkJ-13" edge="1">
                    <mxGeometry relative="1" as="geometry">
                        <Array as="points">
                            <mxPoint x="-105" y="1090"/>
                        </Array>
                    </mxGeometry>
                </mxCell>
                <mxCell id="5l0GrJtP1CWsg4SSQHkJ-6" value="&lt;span id=&quot;docs-internal-guid-71783977-7fff-e65a-4a16-888c71d1ddcc&quot; style=&quot;font-size: 20px&quot;&gt;&lt;h3 dir=&quot;ltr&quot; style=&quot;line-height: 1.38 ; margin-top: 0pt ; margin-bottom: 0pt ; font-size: 20px&quot;&gt;&amp;nbsp;Execute Duplication IE&lt;br&gt;&lt;/h3&gt;&lt;/span&gt;" style="rounded=0;whiteSpace=wrap;html=1;fontSize=20;fontStyle=1;fontFamily=Times New Roman;" parent="cVtck4FJjnXxOCOkSIwr-1" vertex="1">
                    <mxGeometry x="-280" y="920" width="350" height="60" as="geometry"/>
                </mxCell>
                <mxCell id="5l0GrJtP1CWsg4SSQHkJ-10" value="&lt;font color=&quot;#808080&quot;&gt;&lt;b&gt;NO&lt;/b&gt;&lt;/font&gt;" style="text;html=1;strokeColor=none;fillColor=none;align=center;verticalAlign=middle;whiteSpace=wrap;rounded=0;fontFamily=Times New Roman;fontSize=20;fontColor=default;" parent="cVtck4FJjnXxOCOkSIwr-1" vertex="1">
                    <mxGeometry x="290" y="1010" width="60" height="30" as="geometry"/>
                </mxCell>
                <mxCell id="5l0GrJtP1CWsg4SSQHkJ-12" value="&lt;font color=&quot;#808080&quot;&gt;&lt;b&gt;YES&lt;/b&gt;&lt;/font&gt;" style="text;html=1;strokeColor=none;fillColor=none;align=center;verticalAlign=middle;whiteSpace=wrap;rounded=0;fontFamily=Times New Roman;fontSize=20;fontColor=default;" parent="cVtck4FJjnXxOCOkSIwr-1" vertex="1">
                    <mxGeometry x="90" y="910" width="60" height="30" as="geometry"/>
                </mxCell>
                <mxCell id="5l0GrJtP1CWsg4SSQHkJ-17" style="edgeStyle=none;rounded=0;html=1;fontFamily=Times New Roman;fontSize=20;" parent="cVtck4FJjnXxOCOkSIwr-1" source="5l0GrJtP1CWsg4SSQHkJ-13" target="5l0GrJtP1CWsg4SSQHkJ-14" edge="1">
                    <mxGeometry relative="1" as="geometry"/>
                </mxCell>
                <mxCell id="8MhOsIIOmGbdQf60hwQP-1" style="edgeStyle=none;rounded=0;html=1;entryX=0.5;entryY=0;entryDx=0;entryDy=0;fontFamily=Times New Roman;fontSize=20;" parent="cVtck4FJjnXxOCOkSIwr-1" source="5l0GrJtP1CWsg4SSQHkJ-13" target="8MhOsIIOmGbdQf60hwQP-0" edge="1">
                    <mxGeometry relative="1" as="geometry"/>
                </mxCell>
                <mxCell id="5l0GrJtP1CWsg4SSQHkJ-13" value="UE Context not retrievable IE" style="rhombus;whiteSpace=wrap;html=1;fontFamily=Times New Roman;fontSize=20;fontStyle=1;align=center;" parent="cVtck4FJjnXxOCOkSIwr-1" vertex="1">
                    <mxGeometry x="165" y="1050" width="240" height="80" as="geometry"/>
                </mxCell>
                <mxCell id="5l0GrJtP1CWsg4SSQHkJ-14" value="&lt;span id=&quot;docs-internal-guid-71783977-7fff-e65a-4a16-888c71d1ddcc&quot; style=&quot;font-size: 20px&quot;&gt;&lt;h3 dir=&quot;ltr&quot; style=&quot;line-height: 1.38 ; margin-top: 0pt ; margin-bottom: 0pt ; font-size: 20px&quot;&gt;contain the Redirected RRC message IE&lt;br&gt;&lt;/h3&gt;&lt;/span&gt;" style="rounded=0;whiteSpace=wrap;html=1;fontSize=20;fontStyle=1;fontFamily=Times New Roman;" parent="cVtck4FJjnXxOCOkSIwr-1" vertex="1">
                    <mxGeometry x="520" y="1060" width="350" height="60" as="geometry"/>
                </mxCell>
                <mxCell id="5l0GrJtP1CWsg4SSQHkJ-18" value="&lt;font color=&quot;#808080&quot;&gt;&lt;b&gt;YES&lt;/b&gt;&lt;/font&gt;" style="text;html=1;strokeColor=none;fillColor=none;align=center;verticalAlign=middle;whiteSpace=wrap;rounded=0;fontFamily=Times New Roman;fontSize=20;fontColor=default;" parent="cVtck4FJjnXxOCOkSIwr-1" vertex="1">
                    <mxGeometry x="425" y="1060" width="60" height="30" as="geometry"/>
                </mxCell>
                <mxCell id="8MhOsIIOmGbdQf60hwQP-0" value="&lt;span id=&quot;docs-internal-guid-71783977-7fff-e65a-4a16-888c71d1ddcc&quot; style=&quot;font-size: 20px&quot;&gt;&lt;h3 dir=&quot;ltr&quot; style=&quot;line-height: 1.38 ; margin-top: 0pt ; margin-bottom: 0pt ; font-size: 20px&quot;&gt;Complete&lt;br&gt;&lt;/h3&gt;&lt;/span&gt;" style="rounded=0;whiteSpace=wrap;html=1;fontSize=20;fontStyle=1;fontFamily=Times New Roman;" parent="cVtck4FJjnXxOCOkSIwr-1" vertex="1">
                    <mxGeometry x="110" y="1190" width="350" height="60" as="geometry"/>
                </mxCell>
            </root>
        </mxGraphModel>
    </diagram>
    <diagram id="XrTs6Jd9-OYPFpg4Z6rh" name="Execute a reconfiguration with sync">
        <mxGraphModel dx="1900" dy="-3876" grid="1" gridSize="10" guides="1" tooltips="1" connect="1" arrows="1" fold="1" page="1" pageScale="1" pageWidth="850" pageHeight="1100" math="0" shadow="0">
            <root>
                <mxCell id="apej7UHXUEtV_DgkS7oX-0"/>
                <mxCell id="apej7UHXUEtV_DgkS7oX-1" parent="apej7UHXUEtV_DgkS7oX-0"/>
                <mxCell id="apej7UHXUEtV_DgkS7oX-2" value="" style="group" parent="apej7UHXUEtV_DgkS7oX-1" connectable="0" vertex="1">
                    <mxGeometry x="-600" y="5060" width="1050" height="800" as="geometry"/>
                </mxCell>
                <mxCell id="apej7UHXUEtV_DgkS7oX-3" value="Execute a reconfiguration with sync" style="rounded=1;whiteSpace=wrap;html=1;fontFamily=Times New Roman;fontSize=20;fontColor=#000000;fontStyle=1" parent="apej7UHXUEtV_DgkS7oX-2" vertex="1">
                    <mxGeometry x="410" width="240" height="60" as="geometry"/>
                </mxCell>
                <mxCell id="apej7UHXUEtV_DgkS7oX-4" value="AS security is not activated" style="rhombus;whiteSpace=wrap;html=1;fontFamily=Times New Roman;fontSize=20;fontColor=#000000;fontStyle=1" parent="apej7UHXUEtV_DgkS7oX-2" vertex="1">
                    <mxGeometry x="390" y="110" width="280" height="80" as="geometry"/>
                </mxCell>
                <mxCell id="apej7UHXUEtV_DgkS7oX-5" style="edgeStyle=orthogonalEdgeStyle;rounded=0;orthogonalLoop=1;jettySize=auto;html=1;fontFamily=Times New Roman;fontSize=20;fontColor=#000000;" parent="apej7UHXUEtV_DgkS7oX-2" source="apej7UHXUEtV_DgkS7oX-3" target="apej7UHXUEtV_DgkS7oX-4" edge="1">
                    <mxGeometry relative="1" as="geometry"/>
                </mxCell>
                <mxCell id="apej7UHXUEtV_DgkS7oX-6" value="Going to RRC_IDLE(5.3.1.1)" style="rounded=1;whiteSpace=wrap;html=1;fontFamily=Times New Roman;fontSize=20;fontColor=#000000;fontStyle=1" parent="apej7UHXUEtV_DgkS7oX-2" vertex="1">
                    <mxGeometry x="740" y="120" width="310" height="60" as="geometry"/>
                </mxCell>
                <mxCell id="apej7UHXUEtV_DgkS7oX-7" style="edgeStyle=orthogonalEdgeStyle;rounded=0;orthogonalLoop=1;jettySize=auto;html=1;entryX=0;entryY=0.5;entryDx=0;entryDy=0;fontFamily=Times New Roman;fontSize=20;fontColor=#000000;" parent="apej7UHXUEtV_DgkS7oX-2" source="apej7UHXUEtV_DgkS7oX-4" target="apej7UHXUEtV_DgkS7oX-6" edge="1">
                    <mxGeometry relative="1" as="geometry"/>
                </mxCell>
                <mxCell id="apej7UHXUEtV_DgkS7oX-8" value="no DAPS bearer is configured" style="rhombus;whiteSpace=wrap;html=1;fontFamily=Times New Roman;fontSize=20;fontColor=#000000;fontStyle=1" parent="apej7UHXUEtV_DgkS7oX-2" vertex="1">
                    <mxGeometry x="390" y="249" width="280" height="80" as="geometry"/>
                </mxCell>
                <mxCell id="apej7UHXUEtV_DgkS7oX-9" style="edgeStyle=orthogonalEdgeStyle;rounded=0;orthogonalLoop=1;jettySize=auto;html=1;fontFamily=Times New Roman;fontSize=20;fontColor=#000000;" parent="apej7UHXUEtV_DgkS7oX-2" source="apej7UHXUEtV_DgkS7oX-4" target="apej7UHXUEtV_DgkS7oX-8" edge="1">
                    <mxGeometry relative="1" as="geometry"/>
                </mxCell>
                <mxCell id="apej7UHXUEtV_DgkS7oX-10" style="edgeStyle=orthogonalEdgeStyle;rounded=0;orthogonalLoop=1;jettySize=auto;html=1;entryX=1;entryY=0.5;entryDx=0;entryDy=0;fontFamily=Times New Roman;fontSize=20;fontColor=#000000;exitX=0.5;exitY=1;exitDx=0;exitDy=0;" parent="apej7UHXUEtV_DgkS7oX-2" source="apej7UHXUEtV_DgkS7oX-6" target="apej7UHXUEtV_DgkS7oX-8" edge="1">
                    <mxGeometry relative="1" as="geometry"/>
                </mxCell>
                <mxCell id="apej7UHXUEtV_DgkS7oX-11" value="Stop timer T310" style="rounded=1;whiteSpace=wrap;html=1;fontFamily=Times New Roman;fontSize=20;fontColor=#000000;fontStyle=1" parent="apej7UHXUEtV_DgkS7oX-2" vertex="1">
                    <mxGeometry y="260" width="310" height="60" as="geometry"/>
                </mxCell>
                <mxCell id="apej7UHXUEtV_DgkS7oX-12" style="edgeStyle=orthogonalEdgeStyle;rounded=0;orthogonalLoop=1;jettySize=auto;html=1;fontFamily=Times New Roman;fontSize=20;fontColor=#000000;" parent="apej7UHXUEtV_DgkS7oX-2" source="apej7UHXUEtV_DgkS7oX-8" target="apej7UHXUEtV_DgkS7oX-11" edge="1">
                    <mxGeometry relative="1" as="geometry"/>
                </mxCell>
                <mxCell id="apej7UHXUEtV_DgkS7oX-13" value="procedure is executed for the MCG" style="rhombus;whiteSpace=wrap;html=1;fontFamily=Times New Roman;fontSize=20;fontColor=#000000;fontStyle=1" parent="apej7UHXUEtV_DgkS7oX-2" vertex="1">
                    <mxGeometry x="390" y="390" width="280" height="80" as="geometry"/>
                </mxCell>
                <mxCell id="apej7UHXUEtV_DgkS7oX-14" style="edgeStyle=orthogonalEdgeStyle;rounded=0;orthogonalLoop=1;jettySize=auto;html=1;fontFamily=Times New Roman;fontSize=20;fontColor=#000000;" parent="apej7UHXUEtV_DgkS7oX-2" source="apej7UHXUEtV_DgkS7oX-8" target="apej7UHXUEtV_DgkS7oX-13" edge="1">
                    <mxGeometry relative="1" as="geometry"/>
                </mxCell>
                <mxCell id="apej7UHXUEtV_DgkS7oX-15" style="edgeStyle=orthogonalEdgeStyle;rounded=0;orthogonalLoop=1;jettySize=auto;html=1;entryX=0;entryY=0.5;entryDx=0;entryDy=0;fontFamily=Times New Roman;fontSize=20;fontColor=#000000;exitX=0.5;exitY=1;exitDx=0;exitDy=0;" parent="apej7UHXUEtV_DgkS7oX-2" source="apej7UHXUEtV_DgkS7oX-11" target="apej7UHXUEtV_DgkS7oX-13" edge="1">
                    <mxGeometry relative="1" as="geometry"/>
                </mxCell>
                <mxCell id="apej7UHXUEtV_DgkS7oX-16" value="Stop timer T316" style="rounded=1;whiteSpace=wrap;html=1;fontFamily=Times New Roman;fontSize=20;fontColor=#000000;fontStyle=1" parent="apej7UHXUEtV_DgkS7oX-2" vertex="1">
                    <mxGeometry x="730" y="400" width="310" height="60" as="geometry"/>
                </mxCell>
                <mxCell id="apej7UHXUEtV_DgkS7oX-17" value="Clear the information included inVarRLF-Report" style="rounded=1;whiteSpace=wrap;html=1;fontFamily=Times New Roman;fontSize=20;fontColor=#333333;fontStyle=1;fillColor=#f5f5f5;strokeColor=#666666;" parent="apej7UHXUEtV_DgkS7oX-2" vertex="1">
                    <mxGeometry x="730" y="520" width="310" height="60" as="geometry"/>
                </mxCell>
                <mxCell id="apej7UHXUEtV_DgkS7oX-18" style="edgeStyle=orthogonalEdgeStyle;rounded=0;orthogonalLoop=1;jettySize=auto;html=1;fontFamily=Times New Roman;fontSize=20;fontColor=#000000;" parent="apej7UHXUEtV_DgkS7oX-2" source="apej7UHXUEtV_DgkS7oX-16" target="apej7UHXUEtV_DgkS7oX-17" edge="1">
                    <mxGeometry relative="1" as="geometry"/>
                </mxCell>
                <mxCell id="apej7UHXUEtV_DgkS7oX-19" value="Stop timer T312" style="rounded=1;whiteSpace=wrap;html=1;fontFamily=Times New Roman;fontSize=20;fontColor=#000000;fontStyle=1" parent="apej7UHXUEtV_DgkS7oX-2" vertex="1">
                    <mxGeometry x="375" y="520" width="310" height="60" as="geometry"/>
                </mxCell>
                <mxCell id="apej7UHXUEtV_DgkS7oX-20" style="edgeStyle=orthogonalEdgeStyle;rounded=0;orthogonalLoop=1;jettySize=auto;html=1;entryX=0.5;entryY=0;entryDx=0;entryDy=0;fontFamily=Times New Roman;fontSize=20;fontColor=#000000;" parent="apej7UHXUEtV_DgkS7oX-2" source="apej7UHXUEtV_DgkS7oX-13" target="apej7UHXUEtV_DgkS7oX-19" edge="1">
                    <mxGeometry relative="1" as="geometry"/>
                </mxCell>
                <mxCell id="apej7UHXUEtV_DgkS7oX-21" style="edgeStyle=orthogonalEdgeStyle;rounded=0;orthogonalLoop=1;jettySize=auto;html=1;entryX=1;entryY=0.5;entryDx=0;entryDy=0;fontFamily=Times New Roman;fontSize=20;fontColor=#000000;" parent="apej7UHXUEtV_DgkS7oX-2" source="apej7UHXUEtV_DgkS7oX-17" target="apej7UHXUEtV_DgkS7oX-19" edge="1">
                    <mxGeometry relative="1" as="geometry"/>
                </mxCell>
                <mxCell id="apej7UHXUEtV_DgkS7oX-22" value="Start timer T304" style="rounded=1;whiteSpace=wrap;html=1;fontFamily=Times New Roman;fontSize=20;fontColor=#000000;fontStyle=1" parent="apej7UHXUEtV_DgkS7oX-2" vertex="1">
                    <mxGeometry x="375" y="630" width="310" height="60" as="geometry"/>
                </mxCell>
                <mxCell id="apej7UHXUEtV_DgkS7oX-23" style="edgeStyle=orthogonalEdgeStyle;rounded=0;orthogonalLoop=1;jettySize=auto;html=1;entryX=0.5;entryY=0;entryDx=0;entryDy=0;fontFamily=Times New Roman;fontSize=20;fontColor=#000000;" parent="apej7UHXUEtV_DgkS7oX-2" source="apej7UHXUEtV_DgkS7oX-19" target="apej7UHXUEtV_DgkS7oX-22" edge="1">
                    <mxGeometry relative="1" as="geometry"/>
                </mxCell>
                <mxCell id="apej7UHXUEtV_DgkS7oX-24" value="Complete" style="rounded=1;whiteSpace=wrap;html=1;fontFamily=Times New Roman;fontSize=20;fontColor=#000000;fontStyle=1" parent="apej7UHXUEtV_DgkS7oX-2" vertex="1">
                    <mxGeometry x="375" y="740" width="310" height="60" as="geometry"/>
                </mxCell>
                <mxCell id="apej7UHXUEtV_DgkS7oX-25" style="edgeStyle=orthogonalEdgeStyle;rounded=0;orthogonalLoop=1;jettySize=auto;html=1;fontFamily=Times New Roman;fontSize=20;fontColor=#000000;" parent="apej7UHXUEtV_DgkS7oX-2" source="apej7UHXUEtV_DgkS7oX-22" target="apej7UHXUEtV_DgkS7oX-24" edge="1">
                    <mxGeometry relative="1" as="geometry"/>
                </mxCell>
                <mxCell id="apej7UHXUEtV_DgkS7oX-26" value="&lt;font color=&quot;#808080&quot;&gt;&lt;b&gt;NO&lt;/b&gt;&lt;/font&gt;" style="text;html=1;strokeColor=none;fillColor=none;align=center;verticalAlign=middle;whiteSpace=wrap;rounded=0;fontFamily=Times New Roman;fontSize=20;fontColor=default;" parent="apej7UHXUEtV_DgkS7oX-2" vertex="1">
                    <mxGeometry x="520" y="480" width="60" height="30" as="geometry"/>
                </mxCell>
                <mxCell id="apej7UHXUEtV_DgkS7oX-27" value="&lt;font color=&quot;#808080&quot;&gt;&lt;b&gt;NO&lt;/b&gt;&lt;/font&gt;" style="text;html=1;strokeColor=none;fillColor=none;align=center;verticalAlign=middle;whiteSpace=wrap;rounded=0;fontFamily=Times New Roman;fontSize=20;fontColor=default;" parent="apej7UHXUEtV_DgkS7oX-2" vertex="1">
                    <mxGeometry x="520" y="200" width="60" height="30" as="geometry"/>
                </mxCell>
                <mxCell id="apej7UHXUEtV_DgkS7oX-28" value="&lt;font color=&quot;#808080&quot;&gt;&lt;b&gt;NO&lt;/b&gt;&lt;/font&gt;" style="text;html=1;strokeColor=none;fillColor=none;align=center;verticalAlign=middle;whiteSpace=wrap;rounded=0;fontFamily=Times New Roman;fontSize=20;fontColor=default;" parent="apej7UHXUEtV_DgkS7oX-2" vertex="1">
                    <mxGeometry x="520" y="340" width="60" height="30" as="geometry"/>
                </mxCell>
                <mxCell id="apej7UHXUEtV_DgkS7oX-29" value="&lt;font color=&quot;#808080&quot;&gt;&lt;b&gt;YES&lt;/b&gt;&lt;/font&gt;" style="text;html=1;strokeColor=none;fillColor=none;align=center;verticalAlign=middle;whiteSpace=wrap;rounded=0;fontFamily=Times New Roman;fontSize=20;fontColor=default;" parent="apej7UHXUEtV_DgkS7oX-2" vertex="1">
                    <mxGeometry x="320" y="260" width="60" height="30" as="geometry"/>
                </mxCell>
                <mxCell id="apej7UHXUEtV_DgkS7oX-30" value="&lt;font color=&quot;#808080&quot;&gt;&lt;b&gt;YES&lt;/b&gt;&lt;/font&gt;" style="text;html=1;strokeColor=none;fillColor=none;align=center;verticalAlign=middle;whiteSpace=wrap;rounded=0;fontFamily=Times New Roman;fontSize=20;fontColor=default;" parent="apej7UHXUEtV_DgkS7oX-2" vertex="1">
                    <mxGeometry x="660" y="120" width="60" height="30" as="geometry"/>
                </mxCell>
                <mxCell id="apej7UHXUEtV_DgkS7oX-31" value="&lt;font color=&quot;#808080&quot;&gt;&lt;b&gt;YES&lt;/b&gt;&lt;/font&gt;" style="text;html=1;strokeColor=none;fillColor=none;align=center;verticalAlign=middle;whiteSpace=wrap;rounded=0;fontFamily=Times New Roman;fontSize=20;fontColor=default;" parent="apej7UHXUEtV_DgkS7oX-2" vertex="1">
                    <mxGeometry x="660" y="400" width="60" height="30" as="geometry"/>
                </mxCell>
                <mxCell id="apej7UHXUEtV_DgkS7oX-32" style="edgeStyle=orthogonalEdgeStyle;rounded=0;orthogonalLoop=1;jettySize=auto;html=1;fontFamily=Times New Roman;fontSize=20;fontColor=#000000;startArrow=none;" parent="apej7UHXUEtV_DgkS7oX-2" source="apej7UHXUEtV_DgkS7oX-31" target="apej7UHXUEtV_DgkS7oX-16" edge="1">
                    <mxGeometry relative="1" as="geometry"/>
                </mxCell>
                <mxCell id="apej7UHXUEtV_DgkS7oX-33" value="" style="edgeStyle=orthogonalEdgeStyle;rounded=0;orthogonalLoop=1;jettySize=auto;html=1;fontFamily=Times New Roman;fontSize=20;fontColor=#000000;endArrow=none;" parent="apej7UHXUEtV_DgkS7oX-2" source="apej7UHXUEtV_DgkS7oX-13" target="apej7UHXUEtV_DgkS7oX-31" edge="1">
                    <mxGeometry relative="1" as="geometry">
                        <mxPoint x="670" y="430" as="sourcePoint"/>
                        <mxPoint x="730" y="430" as="targetPoint"/>
                    </mxGeometry>
                </mxCell>
            </root>
        </mxGraphModel>
    </diagram>
    <diagram id="oexNtNrDrwN_UPK9K0iU" name="Perform Cell Group Configuration">
        <mxGraphModel dx="1900" dy="-1676" grid="1" gridSize="10" guides="1" tooltips="1" connect="1" arrows="1" fold="1" page="1" pageScale="1" pageWidth="850" pageHeight="1100" math="0" shadow="0">
            <root>
                <mxCell id="ZaHN-muW_qi3iCYnxRyt-0"/>
                <mxCell id="ZaHN-muW_qi3iCYnxRyt-1" parent="ZaHN-muW_qi3iCYnxRyt-0"/>
                <mxCell id="ZaHN-muW_qi3iCYnxRyt-2" value="" style="group" parent="ZaHN-muW_qi3iCYnxRyt-1" connectable="0" vertex="1">
                    <mxGeometry x="-670" y="2910" width="1020" height="1240" as="geometry"/>
                </mxCell>
                <mxCell id="ZaHN-muW_qi3iCYnxRyt-3" value="Perform Cell Group Configuration" style="rounded=1;whiteSpace=wrap;html=1;fontFamily=Times New Roman;fontSize=20;fontColor=#000000;fontStyle=1" parent="ZaHN-muW_qi3iCYnxRyt-2" vertex="1">
                    <mxGeometry x="360" width="280" height="60" as="geometry"/>
                </mxCell>
                <mxCell id="ZaHN-muW_qi3iCYnxRyt-4" value="reconfigurationWithSync" style="rhombus;whiteSpace=wrap;html=1;fontFamily=Times New Roman;fontSize=20;fontColor=#000000;fontStyle=1" parent="ZaHN-muW_qi3iCYnxRyt-2" vertex="1">
                    <mxGeometry x="345" y="110" width="310" height="80" as="geometry"/>
                </mxCell>
                <mxCell id="ZaHN-muW_qi3iCYnxRyt-5" style="edgeStyle=orthogonalEdgeStyle;rounded=0;orthogonalLoop=1;jettySize=auto;html=1;fontFamily=Times New Roman;fontSize=20;fontColor=#000000;" parent="ZaHN-muW_qi3iCYnxRyt-2" source="ZaHN-muW_qi3iCYnxRyt-3" target="ZaHN-muW_qi3iCYnxRyt-4" edge="1">
                    <mxGeometry relative="1" as="geometry"/>
                </mxCell>
                <mxCell id="ZaHN-muW_qi3iCYnxRyt-6" value="Perform Reconfiguration with sync(5.3.5.5.2)" style="rounded=1;whiteSpace=wrap;html=1;fontFamily=Times New Roman;fontSize=20;fontColor=#000000;fontStyle=1" parent="ZaHN-muW_qi3iCYnxRyt-2" vertex="1">
                    <mxGeometry x="10" y="120" width="280" height="60" as="geometry"/>
                </mxCell>
                <mxCell id="ZaHN-muW_qi3iCYnxRyt-7" style="edgeStyle=orthogonalEdgeStyle;rounded=0;orthogonalLoop=1;jettySize=auto;html=1;fontFamily=Times New Roman;fontSize=20;fontColor=#000000;" parent="ZaHN-muW_qi3iCYnxRyt-2" source="ZaHN-muW_qi3iCYnxRyt-4" target="ZaHN-muW_qi3iCYnxRyt-6" edge="1">
                    <mxGeometry relative="1" as="geometry"/>
                </mxCell>
                <mxCell id="ZaHN-muW_qi3iCYnxRyt-8" value="Resume all suspended radio bearers" style="rounded=1;whiteSpace=wrap;html=1;fontFamily=Times New Roman;fontSize=20;fontColor=#000000;fontStyle=1" parent="ZaHN-muW_qi3iCYnxRyt-2" vertex="1">
                    <mxGeometry x="10" y="250" width="280" height="60" as="geometry"/>
                </mxCell>
                <mxCell id="ZaHN-muW_qi3iCYnxRyt-9" style="edgeStyle=orthogonalEdgeStyle;rounded=0;orthogonalLoop=1;jettySize=auto;html=1;fontFamily=Times New Roman;fontSize=20;fontColor=#000000;" parent="ZaHN-muW_qi3iCYnxRyt-2" source="ZaHN-muW_qi3iCYnxRyt-6" target="ZaHN-muW_qi3iCYnxRyt-8" edge="1">
                    <mxGeometry relative="1" as="geometry"/>
                </mxCell>
                <mxCell id="ZaHN-muW_qi3iCYnxRyt-10" value="rlc-BearerToReleaseList" style="rhombus;whiteSpace=wrap;html=1;fontFamily=Times New Roman;fontSize=20;fontColor=#000000;fontStyle=1" parent="ZaHN-muW_qi3iCYnxRyt-2" vertex="1">
                    <mxGeometry x="345" y="240" width="310" height="80" as="geometry"/>
                </mxCell>
                <mxCell id="ZaHN-muW_qi3iCYnxRyt-11" style="edgeStyle=orthogonalEdgeStyle;rounded=0;orthogonalLoop=1;jettySize=auto;html=1;entryX=0.5;entryY=0;entryDx=0;entryDy=0;fontFamily=Times New Roman;fontSize=20;fontColor=#000000;" parent="ZaHN-muW_qi3iCYnxRyt-2" source="ZaHN-muW_qi3iCYnxRyt-4" target="ZaHN-muW_qi3iCYnxRyt-10" edge="1">
                    <mxGeometry relative="1" as="geometry"/>
                </mxCell>
                <mxCell id="ZaHN-muW_qi3iCYnxRyt-12" style="edgeStyle=orthogonalEdgeStyle;rounded=0;orthogonalLoop=1;jettySize=auto;html=1;entryX=0;entryY=0.5;entryDx=0;entryDy=0;fontFamily=Times New Roman;fontSize=20;fontColor=#000000;" parent="ZaHN-muW_qi3iCYnxRyt-2" source="ZaHN-muW_qi3iCYnxRyt-8" target="ZaHN-muW_qi3iCYnxRyt-10" edge="1">
                    <mxGeometry relative="1" as="geometry"/>
                </mxCell>
                <mxCell id="ZaHN-muW_qi3iCYnxRyt-13" value="&lt;font color=&quot;#808080&quot;&gt;&lt;b&gt;YES&lt;/b&gt;&lt;/font&gt;" style="text;html=1;strokeColor=none;fillColor=none;align=center;verticalAlign=middle;whiteSpace=wrap;rounded=0;fontFamily=Times New Roman;fontSize=20;fontColor=default;" parent="ZaHN-muW_qi3iCYnxRyt-2" vertex="1">
                    <mxGeometry x="300" y="120" width="60" height="30" as="geometry"/>
                </mxCell>
                <mxCell id="ZaHN-muW_qi3iCYnxRyt-14" value="Perform RLC bearer release(5.3.5.5.3)" style="rounded=1;whiteSpace=wrap;html=1;fontFamily=Times New Roman;fontSize=20;fontColor=#333333;fontStyle=1;fillColor=#f5f5f5;strokeColor=#666666;" parent="ZaHN-muW_qi3iCYnxRyt-2" vertex="1">
                    <mxGeometry x="730" y="250" width="280" height="60" as="geometry"/>
                </mxCell>
                <mxCell id="ZaHN-muW_qi3iCYnxRyt-15" style="edgeStyle=orthogonalEdgeStyle;rounded=0;orthogonalLoop=1;jettySize=auto;html=1;fontFamily=Times New Roman;fontSize=20;fontColor=#000000;" parent="ZaHN-muW_qi3iCYnxRyt-2" source="ZaHN-muW_qi3iCYnxRyt-10" target="ZaHN-muW_qi3iCYnxRyt-14" edge="1">
                    <mxGeometry relative="1" as="geometry"/>
                </mxCell>
                <mxCell id="ZaHN-muW_qi3iCYnxRyt-16" value="&lt;font color=&quot;#808080&quot;&gt;&lt;b&gt;YES&lt;/b&gt;&lt;/font&gt;" style="text;html=1;strokeColor=none;fillColor=none;align=center;verticalAlign=middle;whiteSpace=wrap;rounded=0;fontFamily=Times New Roman;fontSize=20;fontColor=default;" parent="ZaHN-muW_qi3iCYnxRyt-2" vertex="1">
                    <mxGeometry x="650" y="250" width="60" height="30" as="geometry"/>
                </mxCell>
                <mxCell id="ZaHN-muW_qi3iCYnxRyt-17" value="&lt;font color=&quot;#808080&quot;&gt;&lt;b&gt;NO&lt;/b&gt;&lt;/font&gt;" style="text;html=1;strokeColor=none;fillColor=none;align=center;verticalAlign=middle;whiteSpace=wrap;rounded=0;fontFamily=Times New Roman;fontSize=20;fontColor=default;" parent="ZaHN-muW_qi3iCYnxRyt-2" vertex="1">
                    <mxGeometry x="494" y="200" width="60" height="30" as="geometry"/>
                </mxCell>
                <mxCell id="ZaHN-muW_qi3iCYnxRyt-18" value="mac-CellGroupConfig" style="rhombus;whiteSpace=wrap;html=1;fontFamily=Times New Roman;fontSize=20;fontColor=#000000;fontStyle=1" parent="ZaHN-muW_qi3iCYnxRyt-2" vertex="1">
                    <mxGeometry x="345" y="370" width="310" height="80" as="geometry"/>
                </mxCell>
                <mxCell id="ZaHN-muW_qi3iCYnxRyt-19" style="edgeStyle=orthogonalEdgeStyle;rounded=0;orthogonalLoop=1;jettySize=auto;html=1;entryX=0.5;entryY=0;entryDx=0;entryDy=0;fontFamily=Times New Roman;fontSize=20;fontColor=#000000;" parent="ZaHN-muW_qi3iCYnxRyt-2" source="ZaHN-muW_qi3iCYnxRyt-10" target="ZaHN-muW_qi3iCYnxRyt-18" edge="1">
                    <mxGeometry relative="1" as="geometry"/>
                </mxCell>
                <mxCell id="ZaHN-muW_qi3iCYnxRyt-20" style="edgeStyle=orthogonalEdgeStyle;rounded=0;orthogonalLoop=1;jettySize=auto;html=1;entryX=1;entryY=0.5;entryDx=0;entryDy=0;fontFamily=Times New Roman;fontSize=20;fontColor=#000000;exitX=0.5;exitY=1;exitDx=0;exitDy=0;" parent="ZaHN-muW_qi3iCYnxRyt-2" source="ZaHN-muW_qi3iCYnxRyt-14" target="ZaHN-muW_qi3iCYnxRyt-18" edge="1">
                    <mxGeometry relative="1" as="geometry"/>
                </mxCell>
                <mxCell id="ZaHN-muW_qi3iCYnxRyt-21" value="&lt;font color=&quot;#808080&quot;&gt;&lt;b&gt;NO&lt;/b&gt;&lt;/font&gt;" style="text;html=1;strokeColor=none;fillColor=none;align=center;verticalAlign=middle;whiteSpace=wrap;rounded=0;fontFamily=Times New Roman;fontSize=20;fontColor=default;" parent="ZaHN-muW_qi3iCYnxRyt-2" vertex="1">
                    <mxGeometry x="494" y="330" width="60" height="30" as="geometry"/>
                </mxCell>
                <mxCell id="ZaHN-muW_qi3iCYnxRyt-22" value="Configure the MAC entity (5.3.5.5.5)" style="rounded=1;whiteSpace=wrap;html=1;fontFamily=Times New Roman;fontSize=20;fontColor=#000000;fontStyle=1" parent="ZaHN-muW_qi3iCYnxRyt-2" vertex="1">
                    <mxGeometry x="10" y="380" width="280" height="60" as="geometry"/>
                </mxCell>
                <mxCell id="ZaHN-muW_qi3iCYnxRyt-23" style="edgeStyle=orthogonalEdgeStyle;rounded=0;orthogonalLoop=1;jettySize=auto;html=1;fontFamily=Times New Roman;fontSize=20;fontColor=#000000;" parent="ZaHN-muW_qi3iCYnxRyt-2" source="ZaHN-muW_qi3iCYnxRyt-18" target="ZaHN-muW_qi3iCYnxRyt-22" edge="1">
                    <mxGeometry relative="1" as="geometry"/>
                </mxCell>
                <mxCell id="ZaHN-muW_qi3iCYnxRyt-24" value="sCellToReleaseList" style="rhombus;whiteSpace=wrap;html=1;fontFamily=Times New Roman;fontSize=20;fontColor=#000000;fontStyle=1" parent="ZaHN-muW_qi3iCYnxRyt-2" vertex="1">
                    <mxGeometry x="345" y="510" width="310" height="80" as="geometry"/>
                </mxCell>
                <mxCell id="ZaHN-muW_qi3iCYnxRyt-25" style="edgeStyle=orthogonalEdgeStyle;rounded=0;orthogonalLoop=1;jettySize=auto;html=1;fontFamily=Times New Roman;fontSize=20;fontColor=#000000;" parent="ZaHN-muW_qi3iCYnxRyt-2" source="ZaHN-muW_qi3iCYnxRyt-18" target="ZaHN-muW_qi3iCYnxRyt-24" edge="1">
                    <mxGeometry relative="1" as="geometry"/>
                </mxCell>
                <mxCell id="ZaHN-muW_qi3iCYnxRyt-26" style="edgeStyle=orthogonalEdgeStyle;rounded=0;orthogonalLoop=1;jettySize=auto;html=1;entryX=0;entryY=0.5;entryDx=0;entryDy=0;fontFamily=Times New Roman;fontSize=20;fontColor=#000000;exitX=0.5;exitY=1;exitDx=0;exitDy=0;" parent="ZaHN-muW_qi3iCYnxRyt-2" source="ZaHN-muW_qi3iCYnxRyt-22" target="ZaHN-muW_qi3iCYnxRyt-24" edge="1">
                    <mxGeometry relative="1" as="geometry"/>
                </mxCell>
                <mxCell id="ZaHN-muW_qi3iCYnxRyt-27" value="Perform SCell release(5.3.5.5.8)" style="rounded=1;whiteSpace=wrap;html=1;fontFamily=Times New Roman;fontSize=20;fontColor=#000000;fontStyle=1" parent="ZaHN-muW_qi3iCYnxRyt-2" vertex="1">
                    <mxGeometry x="740" y="520" width="280" height="60" as="geometry"/>
                </mxCell>
                <mxCell id="ZaHN-muW_qi3iCYnxRyt-28" style="edgeStyle=orthogonalEdgeStyle;rounded=0;orthogonalLoop=1;jettySize=auto;html=1;entryX=0;entryY=0.5;entryDx=0;entryDy=0;fontFamily=Times New Roman;fontSize=20;fontColor=#000000;" parent="ZaHN-muW_qi3iCYnxRyt-2" source="ZaHN-muW_qi3iCYnxRyt-24" target="ZaHN-muW_qi3iCYnxRyt-27" edge="1">
                    <mxGeometry relative="1" as="geometry"/>
                </mxCell>
                <mxCell id="ZaHN-muW_qi3iCYnxRyt-29" value="&lt;font color=&quot;#808080&quot;&gt;&lt;b&gt;YES&lt;/b&gt;&lt;/font&gt;" style="text;html=1;strokeColor=none;fillColor=none;align=center;verticalAlign=middle;whiteSpace=wrap;rounded=0;fontFamily=Times New Roman;fontSize=20;fontColor=default;" parent="ZaHN-muW_qi3iCYnxRyt-2" vertex="1">
                    <mxGeometry x="290" y="380" width="60" height="30" as="geometry"/>
                </mxCell>
                <mxCell id="ZaHN-muW_qi3iCYnxRyt-30" value="&lt;font color=&quot;#808080&quot;&gt;&lt;b&gt;NO&lt;/b&gt;&lt;/font&gt;" style="text;html=1;strokeColor=none;fillColor=none;align=center;verticalAlign=middle;whiteSpace=wrap;rounded=0;fontFamily=Times New Roman;fontSize=20;fontColor=default;" parent="ZaHN-muW_qi3iCYnxRyt-2" vertex="1">
                    <mxGeometry x="494" y="470" width="60" height="30" as="geometry"/>
                </mxCell>
                <mxCell id="ZaHN-muW_qi3iCYnxRyt-31" value="&amp;nbsp;spCellConfig" style="rhombus;whiteSpace=wrap;html=1;fontFamily=Times New Roman;fontSize=20;fontColor=#000000;fontStyle=1" parent="ZaHN-muW_qi3iCYnxRyt-2" vertex="1">
                    <mxGeometry x="345" y="650" width="310" height="80" as="geometry"/>
                </mxCell>
                <mxCell id="ZaHN-muW_qi3iCYnxRyt-32" style="edgeStyle=orthogonalEdgeStyle;rounded=0;orthogonalLoop=1;jettySize=auto;html=1;fontFamily=Times New Roman;fontSize=20;fontColor=#000000;" parent="ZaHN-muW_qi3iCYnxRyt-2" source="ZaHN-muW_qi3iCYnxRyt-24" target="ZaHN-muW_qi3iCYnxRyt-31" edge="1">
                    <mxGeometry relative="1" as="geometry"/>
                </mxCell>
                <mxCell id="ZaHN-muW_qi3iCYnxRyt-33" style="edgeStyle=orthogonalEdgeStyle;rounded=0;orthogonalLoop=1;jettySize=auto;html=1;entryX=1;entryY=0.5;entryDx=0;entryDy=0;fontFamily=Times New Roman;fontSize=20;fontColor=#000000;exitX=0.5;exitY=1;exitDx=0;exitDy=0;" parent="ZaHN-muW_qi3iCYnxRyt-2" source="ZaHN-muW_qi3iCYnxRyt-27" target="ZaHN-muW_qi3iCYnxRyt-31" edge="1">
                    <mxGeometry relative="1" as="geometry"/>
                </mxCell>
                <mxCell id="ZaHN-muW_qi3iCYnxRyt-34" value="Configure the SpCell (5.3.5.5.7)" style="rounded=1;whiteSpace=wrap;html=1;fontFamily=Times New Roman;fontSize=20;fontColor=#000000;fontStyle=1" parent="ZaHN-muW_qi3iCYnxRyt-2" vertex="1">
                    <mxGeometry y="660" width="280" height="60" as="geometry"/>
                </mxCell>
                <mxCell id="ZaHN-muW_qi3iCYnxRyt-35" style="edgeStyle=orthogonalEdgeStyle;rounded=0;orthogonalLoop=1;jettySize=auto;html=1;fontFamily=Times New Roman;fontSize=20;fontColor=#000000;" parent="ZaHN-muW_qi3iCYnxRyt-2" source="ZaHN-muW_qi3iCYnxRyt-31" target="ZaHN-muW_qi3iCYnxRyt-34" edge="1">
                    <mxGeometry relative="1" as="geometry"/>
                </mxCell>
                <mxCell id="ZaHN-muW_qi3iCYnxRyt-36" value="sCellToAddModList" style="rhombus;whiteSpace=wrap;html=1;fontFamily=Times New Roman;fontSize=20;fontColor=#000000;fontStyle=1" parent="ZaHN-muW_qi3iCYnxRyt-2" vertex="1">
                    <mxGeometry x="345" y="790" width="310" height="80" as="geometry"/>
                </mxCell>
                <mxCell id="ZaHN-muW_qi3iCYnxRyt-37" style="edgeStyle=orthogonalEdgeStyle;rounded=0;orthogonalLoop=1;jettySize=auto;html=1;entryX=0.5;entryY=0;entryDx=0;entryDy=0;fontFamily=Times New Roman;fontSize=20;fontColor=#000000;" parent="ZaHN-muW_qi3iCYnxRyt-2" source="ZaHN-muW_qi3iCYnxRyt-31" target="ZaHN-muW_qi3iCYnxRyt-36" edge="1">
                    <mxGeometry relative="1" as="geometry"/>
                </mxCell>
                <mxCell id="ZaHN-muW_qi3iCYnxRyt-38" style="edgeStyle=orthogonalEdgeStyle;rounded=0;orthogonalLoop=1;jettySize=auto;html=1;entryX=0;entryY=0.5;entryDx=0;entryDy=0;fontFamily=Times New Roman;fontSize=20;fontColor=#000000;exitX=0.5;exitY=1;exitDx=0;exitDy=0;" parent="ZaHN-muW_qi3iCYnxRyt-2" source="ZaHN-muW_qi3iCYnxRyt-34" target="ZaHN-muW_qi3iCYnxRyt-36" edge="1">
                    <mxGeometry relative="1" as="geometry"/>
                </mxCell>
                <mxCell id="ZaHN-muW_qi3iCYnxRyt-39" value="Perform SCell addition/modification(5.3.5.5.9)" style="rounded=1;whiteSpace=wrap;html=1;fontFamily=Times New Roman;fontSize=20;fontColor=#000000;fontStyle=1" parent="ZaHN-muW_qi3iCYnxRyt-2" vertex="1">
                    <mxGeometry x="730" y="800" width="280" height="60" as="geometry"/>
                </mxCell>
                <mxCell id="ZaHN-muW_qi3iCYnxRyt-40" style="edgeStyle=orthogonalEdgeStyle;rounded=0;orthogonalLoop=1;jettySize=auto;html=1;fontFamily=Times New Roman;fontSize=20;fontColor=#000000;" parent="ZaHN-muW_qi3iCYnxRyt-2" source="ZaHN-muW_qi3iCYnxRyt-36" target="ZaHN-muW_qi3iCYnxRyt-39" edge="1">
                    <mxGeometry relative="1" as="geometry"/>
                </mxCell>
                <mxCell id="ZaHN-muW_qi3iCYnxRyt-41" value="bh-RLC-ChannelToReleaseList" style="rhombus;whiteSpace=wrap;html=1;fontFamily=Times New Roman;fontSize=20;fontColor=#000000;fontStyle=1" parent="ZaHN-muW_qi3iCYnxRyt-2" vertex="1">
                    <mxGeometry x="345" y="929" width="310" height="80" as="geometry"/>
                </mxCell>
                <mxCell id="ZaHN-muW_qi3iCYnxRyt-42" style="edgeStyle=orthogonalEdgeStyle;rounded=0;orthogonalLoop=1;jettySize=auto;html=1;fontFamily=Times New Roman;fontSize=20;fontColor=#000000;" parent="ZaHN-muW_qi3iCYnxRyt-2" source="ZaHN-muW_qi3iCYnxRyt-36" target="ZaHN-muW_qi3iCYnxRyt-41" edge="1">
                    <mxGeometry relative="1" as="geometry"/>
                </mxCell>
                <mxCell id="ZaHN-muW_qi3iCYnxRyt-43" style="edgeStyle=orthogonalEdgeStyle;rounded=0;orthogonalLoop=1;jettySize=auto;html=1;entryX=1;entryY=0.5;entryDx=0;entryDy=0;fontFamily=Times New Roman;fontSize=20;fontColor=#000000;exitX=0.5;exitY=1;exitDx=0;exitDy=0;" parent="ZaHN-muW_qi3iCYnxRyt-2" source="ZaHN-muW_qi3iCYnxRyt-39" target="ZaHN-muW_qi3iCYnxRyt-41" edge="1">
                    <mxGeometry relative="1" as="geometry"/>
                </mxCell>
                <mxCell id="ZaHN-muW_qi3iCYnxRyt-44" value="Perform BH RLC channel release(5.3.5.5.10)" style="rounded=1;whiteSpace=wrap;html=1;fontFamily=Times New Roman;fontSize=20;fontColor=#000000;fontStyle=1" parent="ZaHN-muW_qi3iCYnxRyt-2" vertex="1">
                    <mxGeometry y="939" width="280" height="60" as="geometry"/>
                </mxCell>
                <mxCell id="ZaHN-muW_qi3iCYnxRyt-45" style="edgeStyle=orthogonalEdgeStyle;rounded=0;orthogonalLoop=1;jettySize=auto;html=1;fontFamily=Times New Roman;fontSize=20;fontColor=#000000;" parent="ZaHN-muW_qi3iCYnxRyt-2" source="ZaHN-muW_qi3iCYnxRyt-41" target="ZaHN-muW_qi3iCYnxRyt-44" edge="1">
                    <mxGeometry relative="1" as="geometry"/>
                </mxCell>
                <mxCell id="ZaHN-muW_qi3iCYnxRyt-46" value="bh-RLC-ChannelToAddModList" style="rhombus;whiteSpace=wrap;html=1;fontFamily=Times New Roman;fontSize=20;fontColor=#000000;fontStyle=1" parent="ZaHN-muW_qi3iCYnxRyt-2" vertex="1">
                    <mxGeometry x="345" y="1060" width="310" height="80" as="geometry"/>
                </mxCell>
                <mxCell id="ZaHN-muW_qi3iCYnxRyt-47" style="edgeStyle=orthogonalEdgeStyle;rounded=0;orthogonalLoop=1;jettySize=auto;html=1;entryX=0.5;entryY=0;entryDx=0;entryDy=0;fontFamily=Times New Roman;fontSize=20;fontColor=#000000;" parent="ZaHN-muW_qi3iCYnxRyt-2" source="ZaHN-muW_qi3iCYnxRyt-41" target="ZaHN-muW_qi3iCYnxRyt-46" edge="1">
                    <mxGeometry relative="1" as="geometry"/>
                </mxCell>
                <mxCell id="ZaHN-muW_qi3iCYnxRyt-48" style="edgeStyle=orthogonalEdgeStyle;rounded=0;orthogonalLoop=1;jettySize=auto;html=1;entryX=0;entryY=0.5;entryDx=0;entryDy=0;fontFamily=Times New Roman;fontSize=20;fontColor=#000000;exitX=0.5;exitY=1;exitDx=0;exitDy=0;" parent="ZaHN-muW_qi3iCYnxRyt-2" source="ZaHN-muW_qi3iCYnxRyt-44" target="ZaHN-muW_qi3iCYnxRyt-46" edge="1">
                    <mxGeometry relative="1" as="geometry"/>
                </mxCell>
                <mxCell id="ZaHN-muW_qi3iCYnxRyt-49" value="Perform the BH RLC channel addition/modification(5.3.5.5.11)" style="rounded=1;whiteSpace=wrap;html=1;fontFamily=Times New Roman;fontSize=20;fontColor=#000000;fontStyle=1" parent="ZaHN-muW_qi3iCYnxRyt-2" vertex="1">
                    <mxGeometry x="730" y="1070" width="280" height="60" as="geometry"/>
                </mxCell>
                <mxCell id="ZaHN-muW_qi3iCYnxRyt-50" style="edgeStyle=orthogonalEdgeStyle;rounded=0;orthogonalLoop=1;jettySize=auto;html=1;fontFamily=Times New Roman;fontSize=20;fontColor=#000000;" parent="ZaHN-muW_qi3iCYnxRyt-2" source="ZaHN-muW_qi3iCYnxRyt-46" target="ZaHN-muW_qi3iCYnxRyt-49" edge="1">
                    <mxGeometry relative="1" as="geometry"/>
                </mxCell>
                <mxCell id="ZaHN-muW_qi3iCYnxRyt-51" value="&lt;font color=&quot;#808080&quot;&gt;&lt;b&gt;NO&lt;/b&gt;&lt;/font&gt;" style="text;html=1;strokeColor=none;fillColor=none;align=center;verticalAlign=middle;whiteSpace=wrap;rounded=0;fontFamily=Times New Roman;fontSize=20;fontColor=default;" parent="ZaHN-muW_qi3iCYnxRyt-2" vertex="1">
                    <mxGeometry x="494" y="600" width="60" height="30" as="geometry"/>
                </mxCell>
                <mxCell id="ZaHN-muW_qi3iCYnxRyt-52" value="&lt;font color=&quot;#808080&quot;&gt;&lt;b&gt;YES&lt;/b&gt;&lt;/font&gt;" style="text;html=1;strokeColor=none;fillColor=none;align=center;verticalAlign=middle;whiteSpace=wrap;rounded=0;fontFamily=Times New Roman;fontSize=20;fontColor=default;" parent="ZaHN-muW_qi3iCYnxRyt-2" vertex="1">
                    <mxGeometry x="660" y="520" width="60" height="30" as="geometry"/>
                </mxCell>
                <mxCell id="ZaHN-muW_qi3iCYnxRyt-53" value="&lt;font color=&quot;#808080&quot;&gt;&lt;b&gt;NO&lt;/b&gt;&lt;/font&gt;" style="text;html=1;strokeColor=none;fillColor=none;align=center;verticalAlign=middle;whiteSpace=wrap;rounded=0;fontFamily=Times New Roman;fontSize=20;fontColor=default;" parent="ZaHN-muW_qi3iCYnxRyt-2" vertex="1">
                    <mxGeometry x="494" y="740" width="60" height="30" as="geometry"/>
                </mxCell>
                <mxCell id="ZaHN-muW_qi3iCYnxRyt-54" value="&lt;font color=&quot;#808080&quot;&gt;&lt;b&gt;YES&lt;/b&gt;&lt;/font&gt;" style="text;html=1;strokeColor=none;fillColor=none;align=center;verticalAlign=middle;whiteSpace=wrap;rounded=0;fontFamily=Times New Roman;fontSize=20;fontColor=default;" parent="ZaHN-muW_qi3iCYnxRyt-2" vertex="1">
                    <mxGeometry x="290" y="660" width="60" height="30" as="geometry"/>
                </mxCell>
                <mxCell id="ZaHN-muW_qi3iCYnxRyt-55" value="&lt;font color=&quot;#808080&quot;&gt;&lt;b&gt;NO&lt;/b&gt;&lt;/font&gt;" style="text;html=1;strokeColor=none;fillColor=none;align=center;verticalAlign=middle;whiteSpace=wrap;rounded=0;fontFamily=Times New Roman;fontSize=20;fontColor=default;" parent="ZaHN-muW_qi3iCYnxRyt-2" vertex="1">
                    <mxGeometry x="494" y="880" width="60" height="30" as="geometry"/>
                </mxCell>
                <mxCell id="ZaHN-muW_qi3iCYnxRyt-56" value="&lt;font color=&quot;#808080&quot;&gt;&lt;b&gt;YES&lt;/b&gt;&lt;/font&gt;" style="text;html=1;strokeColor=none;fillColor=none;align=center;verticalAlign=middle;whiteSpace=wrap;rounded=0;fontFamily=Times New Roman;fontSize=20;fontColor=default;" parent="ZaHN-muW_qi3iCYnxRyt-2" vertex="1">
                    <mxGeometry x="655" y="800" width="60" height="30" as="geometry"/>
                </mxCell>
                <mxCell id="ZaHN-muW_qi3iCYnxRyt-57" value="&lt;font color=&quot;#808080&quot;&gt;&lt;b&gt;NO&lt;/b&gt;&lt;/font&gt;" style="text;html=1;strokeColor=none;fillColor=none;align=center;verticalAlign=middle;whiteSpace=wrap;rounded=0;fontFamily=Times New Roman;fontSize=20;fontColor=default;" parent="ZaHN-muW_qi3iCYnxRyt-2" vertex="1">
                    <mxGeometry x="494" y="1020" width="60" height="30" as="geometry"/>
                </mxCell>
                <mxCell id="ZaHN-muW_qi3iCYnxRyt-58" value="&lt;font color=&quot;#808080&quot;&gt;&lt;b&gt;YES&lt;/b&gt;&lt;/font&gt;" style="text;html=1;strokeColor=none;fillColor=none;align=center;verticalAlign=middle;whiteSpace=wrap;rounded=0;fontFamily=Times New Roman;fontSize=20;fontColor=default;" parent="ZaHN-muW_qi3iCYnxRyt-2" vertex="1">
                    <mxGeometry x="290" y="939" width="60" height="30" as="geometry"/>
                </mxCell>
                <mxCell id="ZaHN-muW_qi3iCYnxRyt-59" value="&lt;font color=&quot;#808080&quot;&gt;&lt;b&gt;YES&lt;/b&gt;&lt;/font&gt;" style="text;html=1;strokeColor=none;fillColor=none;align=center;verticalAlign=middle;whiteSpace=wrap;rounded=0;fontFamily=Times New Roman;fontSize=20;fontColor=default;" parent="ZaHN-muW_qi3iCYnxRyt-2" vertex="1">
                    <mxGeometry x="650" y="1070" width="60" height="30" as="geometry"/>
                </mxCell>
                <mxCell id="ZaHN-muW_qi3iCYnxRyt-60" value="Complete" style="rounded=1;whiteSpace=wrap;html=1;fontFamily=Times New Roman;fontSize=20;fontColor=#000000;fontStyle=1" parent="ZaHN-muW_qi3iCYnxRyt-2" vertex="1">
                    <mxGeometry x="360" y="1180" width="280" height="60" as="geometry"/>
                </mxCell>
                <mxCell id="ZaHN-muW_qi3iCYnxRyt-61" style="edgeStyle=orthogonalEdgeStyle;rounded=0;orthogonalLoop=1;jettySize=auto;html=1;fontFamily=Times New Roman;fontSize=20;fontColor=#000000;" parent="ZaHN-muW_qi3iCYnxRyt-2" source="ZaHN-muW_qi3iCYnxRyt-46" target="ZaHN-muW_qi3iCYnxRyt-60" edge="1">
                    <mxGeometry relative="1" as="geometry"/>
                </mxCell>
                <mxCell id="ZaHN-muW_qi3iCYnxRyt-62" value="&lt;font color=&quot;#808080&quot;&gt;&lt;b&gt;NO&lt;/b&gt;&lt;/font&gt;" style="text;html=1;strokeColor=none;fillColor=none;align=center;verticalAlign=middle;whiteSpace=wrap;rounded=0;fontFamily=Times New Roman;fontSize=20;fontColor=default;" parent="ZaHN-muW_qi3iCYnxRyt-2" vertex="1">
                    <mxGeometry x="494" y="1140" width="60" height="30" as="geometry"/>
                </mxCell>
            </root>
        </mxGraphModel>
    </diagram>
    <diagram id="htUFmVjLdIQsgosK7MQw" name="Reception of the RRCSetup by the UE ">
        <mxGraphModel dx="2750" dy="-2776" grid="1" gridSize="10" guides="1" tooltips="1" connect="1" arrows="1" fold="1" page="1" pageScale="1" pageWidth="850" pageHeight="1100" math="0" shadow="0">
            <root>
                <mxCell id="XMhZtcgcBXGXwFpGlEAI-0"/>
                <mxCell id="XMhZtcgcBXGXwFpGlEAI-1" parent="XMhZtcgcBXGXwFpGlEAI-0"/>
                <mxCell id="XMhZtcgcBXGXwFpGlEAI-2" value="&lt;span id=&quot;docs-internal-guid-6f250543-7fff-b2d6-5344-95b8192d7042&quot; style=&quot;font-size: 20px;&quot;&gt;&lt;span style=&quot;font-size: 20px; background-color: transparent; font-variant-numeric: normal; font-variant-east-asian: normal; vertical-align: baseline;&quot;&gt;Discard any stored UE Inactive AS context and suspendConfig&lt;/span&gt;&lt;/span&gt;" style="rounded=1;whiteSpace=wrap;html=1;fontSize=20;fontStyle=1;fontFamily=Times New Roman;" parent="XMhZtcgcBXGXwFpGlEAI-1" vertex="1">
                    <mxGeometry x="-1100" y="4200" width="350" height="50" as="geometry"/>
                </mxCell>
                <mxCell id="XMhZtcgcBXGXwFpGlEAI-3" value="&lt;span id=&quot;docs-internal-guid-6f250543-7fff-b2d6-5344-95b8192d7042&quot; style=&quot;font-size: 20px;&quot;&gt;&lt;span style=&quot;font-size: 20px; background-color: transparent; font-variant-numeric: normal; font-variant-east-asian: normal; vertical-align: baseline;&quot;&gt;Discard any current AS security context&lt;/span&gt;&lt;/span&gt;" style="rounded=1;whiteSpace=wrap;html=1;fontSize=20;fontStyle=1;fontFamily=Times New Roman;" parent="XMhZtcgcBXGXwFpGlEAI-1" vertex="1">
                    <mxGeometry x="-1100" y="4296" width="350" height="50" as="geometry"/>
                </mxCell>
                <mxCell id="XMhZtcgcBXGXwFpGlEAI-4" style="edgeStyle=orthogonalEdgeStyle;rounded=0;orthogonalLoop=1;jettySize=auto;html=1;fontFamily=Times New Roman;fontSize=20;fontColor=#808080;" parent="XMhZtcgcBXGXwFpGlEAI-1" source="XMhZtcgcBXGXwFpGlEAI-2" target="XMhZtcgcBXGXwFpGlEAI-3" edge="1">
                    <mxGeometry relative="1" as="geometry"/>
                </mxCell>
                <mxCell id="XMhZtcgcBXGXwFpGlEAI-5" value="&lt;span id=&quot;docs-internal-guid-6f250543-7fff-b2d6-5344-95b8192d7042&quot; style=&quot;font-size: 20px;&quot;&gt;&lt;span style=&quot;font-size: 20px; background-color: transparent; font-variant-numeric: normal; font-variant-east-asian: normal; vertical-align: baseline;&quot;&gt;Release radio resources&lt;/span&gt;&lt;/span&gt;" style="rounded=1;whiteSpace=wrap;html=1;fontSize=20;fontStyle=1;fontFamily=Times New Roman;fillColor=#f5f5f5;fontColor=#333333;strokeColor=#666666;" parent="XMhZtcgcBXGXwFpGlEAI-1" vertex="1">
                    <mxGeometry x="-1100" y="4386" width="350" height="50" as="geometry"/>
                </mxCell>
                <mxCell id="XMhZtcgcBXGXwFpGlEAI-6" style="edgeStyle=orthogonalEdgeStyle;rounded=0;orthogonalLoop=1;jettySize=auto;html=1;fontFamily=Times New Roman;fontSize=20;fontColor=#808080;" parent="XMhZtcgcBXGXwFpGlEAI-1" source="XMhZtcgcBXGXwFpGlEAI-3" target="XMhZtcgcBXGXwFpGlEAI-5" edge="1">
                    <mxGeometry relative="1" as="geometry"/>
                </mxCell>
                <mxCell id="XMhZtcgcBXGXwFpGlEAI-7" value="&lt;span id=&quot;docs-internal-guid-6f250543-7fff-b2d6-5344-95b8192d7042&quot; style=&quot;font-size: 20px;&quot;&gt;&lt;span style=&quot;font-size: 20px; background-color: transparent; font-variant-numeric: normal; font-variant-east-asian: normal; vertical-align: baseline;&quot;&gt;Release the RRC configuration&amp;nbsp;&lt;/span&gt;&lt;/span&gt;" style="rounded=1;whiteSpace=wrap;html=1;fontSize=20;fontStyle=1;fontFamily=Times New Roman;fillColor=#f5f5f5;fontColor=#333333;strokeColor=#666666;" parent="XMhZtcgcBXGXwFpGlEAI-1" vertex="1">
                    <mxGeometry x="-1100" y="4476" width="350" height="50" as="geometry"/>
                </mxCell>
                <mxCell id="XMhZtcgcBXGXwFpGlEAI-8" style="edgeStyle=orthogonalEdgeStyle;rounded=0;orthogonalLoop=1;jettySize=auto;html=1;fontFamily=Times New Roman;fontSize=20;fontColor=#808080;" parent="XMhZtcgcBXGXwFpGlEAI-1" source="XMhZtcgcBXGXwFpGlEAI-5" target="XMhZtcgcBXGXwFpGlEAI-7" edge="1">
                    <mxGeometry relative="1" as="geometry"/>
                </mxCell>
                <mxCell id="XMhZtcgcBXGXwFpGlEAI-9" value="&lt;span id=&quot;docs-internal-guid-6f250543-7fff-b2d6-5344-95b8192d7042&quot; style=&quot;font-size: 20px;&quot;&gt;&lt;span style=&quot;font-size: 20px; background-color: transparent; font-variant-numeric: normal; font-variant-east-asian: normal; vertical-align: baseline;&quot;&gt;Indicate to upper layers fallback of the RRC connection;&lt;/span&gt;&lt;/span&gt;" style="rounded=1;whiteSpace=wrap;html=1;fontSize=20;fontStyle=1;fontFamily=Times New Roman;fillColor=#f5f5f5;fontColor=#333333;strokeColor=#666666;" parent="XMhZtcgcBXGXwFpGlEAI-1" vertex="1">
                    <mxGeometry x="-1100" y="4566" width="350" height="50" as="geometry"/>
                </mxCell>
                <mxCell id="XMhZtcgcBXGXwFpGlEAI-10" style="edgeStyle=orthogonalEdgeStyle;rounded=0;orthogonalLoop=1;jettySize=auto;html=1;fontFamily=Times New Roman;fontSize=20;fontColor=#808080;" parent="XMhZtcgcBXGXwFpGlEAI-1" source="XMhZtcgcBXGXwFpGlEAI-7" target="XMhZtcgcBXGXwFpGlEAI-9" edge="1">
                    <mxGeometry relative="1" as="geometry"/>
                </mxCell>
                <mxCell id="XMhZtcgcBXGXwFpGlEAI-11" value="&lt;span id=&quot;docs-internal-guid-6f250543-7fff-b2d6-5344-95b8192d7042&quot; style=&quot;font-size: 20px;&quot;&gt;&lt;span style=&quot;font-size: 20px; background-color: transparent; font-variant-numeric: normal; font-variant-east-asian: normal; vertical-align: baseline;&quot;&gt;Stop timer T380&lt;/span&gt;&lt;/span&gt;" style="rounded=1;whiteSpace=wrap;html=1;fontSize=20;fontStyle=1;fontFamily=Times New Roman;" parent="XMhZtcgcBXGXwFpGlEAI-1" vertex="1">
                    <mxGeometry x="-1100" y="4656" width="350" height="50" as="geometry"/>
                </mxCell>
                <mxCell id="XMhZtcgcBXGXwFpGlEAI-12" style="edgeStyle=orthogonalEdgeStyle;rounded=0;orthogonalLoop=1;jettySize=auto;html=1;fontFamily=Times New Roman;fontSize=20;fontColor=#808080;" parent="XMhZtcgcBXGXwFpGlEAI-1" source="XMhZtcgcBXGXwFpGlEAI-9" target="XMhZtcgcBXGXwFpGlEAI-11" edge="1">
                    <mxGeometry relative="1" as="geometry"/>
                </mxCell>
                <mxCell id="XMhZtcgcBXGXwFpGlEAI-13" value="&lt;div&gt;Perform the cell group configuration procedure in accordance with the received masterCellGroup and &lt;span style=&quot;background-color: initial;&quot;&gt;&amp;nbsp;(5.3.5.5)&lt;/span&gt;&lt;/div&gt;" style="rounded=1;whiteSpace=wrap;html=1;fontSize=20;fontStyle=1;fontFamily=Times New Roman;" parent="XMhZtcgcBXGXwFpGlEAI-1" vertex="1">
                    <mxGeometry x="-1100" y="4746" width="350" height="80" as="geometry"/>
                </mxCell>
                <mxCell id="XMhZtcgcBXGXwFpGlEAI-14" style="edgeStyle=orthogonalEdgeStyle;rounded=0;orthogonalLoop=1;jettySize=auto;html=1;fontFamily=Times New Roman;fontSize=20;fontColor=#808080;" parent="XMhZtcgcBXGXwFpGlEAI-1" source="XMhZtcgcBXGXwFpGlEAI-11" target="XMhZtcgcBXGXwFpGlEAI-13" edge="1">
                    <mxGeometry relative="1" as="geometry"/>
                </mxCell>
                <mxCell id="XMhZtcgcBXGXwFpGlEAI-15" value="&lt;div&gt;Perform the radio bearer configuration procedure in accordance with the received radioBearerConfig(&lt;span style=&quot;background-color: initial;&quot;&gt;5.3.5.6)&lt;/span&gt;&lt;/div&gt;" style="rounded=1;whiteSpace=wrap;html=1;fontSize=20;fontStyle=1;fontFamily=Times New Roman;" parent="XMhZtcgcBXGXwFpGlEAI-1" vertex="1">
                    <mxGeometry x="-1100" y="4866" width="350" height="80" as="geometry"/>
                </mxCell>
                <mxCell id="XMhZtcgcBXGXwFpGlEAI-16" style="edgeStyle=orthogonalEdgeStyle;rounded=0;orthogonalLoop=1;jettySize=auto;html=1;fontFamily=Times New Roman;fontSize=20;fontColor=#808080;" parent="XMhZtcgcBXGXwFpGlEAI-1" source="XMhZtcgcBXGXwFpGlEAI-13" target="XMhZtcgcBXGXwFpGlEAI-15" edge="1">
                    <mxGeometry relative="1" as="geometry"/>
                </mxCell>
                <mxCell id="XMhZtcgcBXGXwFpGlEAI-17" value="if stored, discard the cell reselection priority information provided by the cellReselectionPriorities or inherited from another RAT" style="rounded=1;whiteSpace=wrap;html=1;fontSize=20;fontStyle=1;fontFamily=Times New Roman;fillColor=#f5f5f5;fontColor=#333333;strokeColor=#666666;" parent="XMhZtcgcBXGXwFpGlEAI-1" vertex="1">
                    <mxGeometry x="-660" y="4200" width="350" height="90" as="geometry"/>
                </mxCell>
                <mxCell id="XMhZtcgcBXGXwFpGlEAI-18" style="edgeStyle=orthogonalEdgeStyle;rounded=0;orthogonalLoop=1;jettySize=auto;html=1;entryX=0;entryY=0.5;entryDx=0;entryDy=0;fontFamily=Times New Roman;fontSize=20;fontColor=#808080;" parent="XMhZtcgcBXGXwFpGlEAI-1" source="XMhZtcgcBXGXwFpGlEAI-15" target="XMhZtcgcBXGXwFpGlEAI-17" edge="1">
                    <mxGeometry relative="1" as="geometry"/>
                </mxCell>
                <mxCell id="XMhZtcgcBXGXwFpGlEAI-19" value="&lt;span id=&quot;docs-internal-guid-6f250543-7fff-b2d6-5344-95b8192d7042&quot; style=&quot;font-size: 20px;&quot;&gt;&lt;span style=&quot;font-size: 20px; background-color: transparent; font-variant-numeric: normal; font-variant-east-asian: normal; vertical-align: baseline;&quot;&gt;Stop timer T300, T301 or T319&lt;/span&gt;&lt;/span&gt;" style="rounded=1;whiteSpace=wrap;html=1;fontSize=20;fontStyle=1;fontFamily=Times New Roman;" parent="XMhZtcgcBXGXwFpGlEAI-1" vertex="1">
                    <mxGeometry x="-660" y="4326" width="350" height="50" as="geometry"/>
                </mxCell>
                <mxCell id="XMhZtcgcBXGXwFpGlEAI-20" style="edgeStyle=orthogonalEdgeStyle;rounded=0;orthogonalLoop=1;jettySize=auto;html=1;fontFamily=Times New Roman;fontSize=20;fontColor=#808080;" parent="XMhZtcgcBXGXwFpGlEAI-1" source="XMhZtcgcBXGXwFpGlEAI-17" target="XMhZtcgcBXGXwFpGlEAI-19" edge="1">
                    <mxGeometry relative="1" as="geometry"/>
                </mxCell>
                <mxCell id="XMhZtcgcBXGXwFpGlEAI-21" value="&lt;span id=&quot;docs-internal-guid-6f250543-7fff-b2d6-5344-95b8192d7042&quot; style=&quot;font-size: 20px;&quot;&gt;&lt;span style=&quot;font-size: 20px; background-color: transparent; font-variant-numeric: normal; font-variant-east-asian: normal; vertical-align: baseline;&quot;&gt;Stop timer T390&lt;/span&gt;&lt;/span&gt;" style="rounded=1;whiteSpace=wrap;html=1;fontSize=20;fontStyle=1;fontFamily=Times New Roman;" parent="XMhZtcgcBXGXwFpGlEAI-1" vertex="1">
                    <mxGeometry x="-660" y="4416" width="350" height="50" as="geometry"/>
                </mxCell>
                <mxCell id="XMhZtcgcBXGXwFpGlEAI-22" style="edgeStyle=orthogonalEdgeStyle;rounded=0;orthogonalLoop=1;jettySize=auto;html=1;fontFamily=Times New Roman;fontSize=20;fontColor=#808080;" parent="XMhZtcgcBXGXwFpGlEAI-1" source="XMhZtcgcBXGXwFpGlEAI-19" target="XMhZtcgcBXGXwFpGlEAI-21" edge="1">
                    <mxGeometry relative="1" as="geometry"/>
                </mxCell>
                <mxCell id="XMhZtcgcBXGXwFpGlEAI-23" value="&lt;span id=&quot;docs-internal-guid-6f250543-7fff-b2d6-5344-95b8192d7042&quot; style=&quot;font-size: 20px;&quot;&gt;&lt;span style=&quot;font-size: 20px; background-color: transparent; font-variant-numeric: normal; font-variant-east-asian: normal; vertical-align: baseline;&quot;&gt;Stop timer T302&lt;/span&gt;&lt;/span&gt;" style="rounded=1;whiteSpace=wrap;html=1;fontSize=20;fontStyle=1;fontFamily=Times New Roman;" parent="XMhZtcgcBXGXwFpGlEAI-1" vertex="1">
                    <mxGeometry x="-660" y="4506" width="350" height="50" as="geometry"/>
                </mxCell>
                <mxCell id="XMhZtcgcBXGXwFpGlEAI-24" style="edgeStyle=orthogonalEdgeStyle;rounded=0;orthogonalLoop=1;jettySize=auto;html=1;fontFamily=Times New Roman;fontSize=20;fontColor=#808080;" parent="XMhZtcgcBXGXwFpGlEAI-1" source="XMhZtcgcBXGXwFpGlEAI-21" target="XMhZtcgcBXGXwFpGlEAI-23" edge="1">
                    <mxGeometry relative="1" as="geometry"/>
                </mxCell>
                <mxCell id="XMhZtcgcBXGXwFpGlEAI-25" value="&lt;span id=&quot;docs-internal-guid-6f250543-7fff-b2d6-5344-95b8192d7042&quot; style=&quot;font-size: 20px;&quot;&gt;&lt;span style=&quot;font-size: 20px; background-color: transparent; font-variant-numeric: normal; font-variant-east-asian: normal; vertical-align: baseline;&quot;&gt;Perform the actions (5.3.14.4)&lt;/span&gt;&lt;/span&gt;" style="rounded=1;whiteSpace=wrap;html=1;fontSize=20;fontStyle=1;fontFamily=Times New Roman;fillColor=#f5f5f5;fontColor=#333333;strokeColor=#666666;" parent="XMhZtcgcBXGXwFpGlEAI-1" vertex="1">
                    <mxGeometry x="-660" y="4596" width="350" height="50" as="geometry"/>
                </mxCell>
                <mxCell id="XMhZtcgcBXGXwFpGlEAI-26" style="edgeStyle=orthogonalEdgeStyle;rounded=0;orthogonalLoop=1;jettySize=auto;html=1;fontFamily=Times New Roman;fontSize=20;fontColor=#808080;" parent="XMhZtcgcBXGXwFpGlEAI-1" source="XMhZtcgcBXGXwFpGlEAI-23" target="XMhZtcgcBXGXwFpGlEAI-25" edge="1">
                    <mxGeometry relative="1" as="geometry"/>
                </mxCell>
                <mxCell id="XMhZtcgcBXGXwFpGlEAI-27" value="&lt;span id=&quot;docs-internal-guid-6f250543-7fff-b2d6-5344-95b8192d7042&quot; style=&quot;font-size: 20px;&quot;&gt;&lt;span style=&quot;font-size: 20px; background-color: transparent; font-variant-numeric: normal; font-variant-east-asian: normal; vertical-align: baseline;&quot;&gt;Stop timer T320&lt;/span&gt;&lt;/span&gt;" style="rounded=1;whiteSpace=wrap;html=1;fontSize=20;fontStyle=1;fontFamily=Times New Roman;" parent="XMhZtcgcBXGXwFpGlEAI-1" vertex="1">
                    <mxGeometry x="-660" y="4686" width="350" height="50" as="geometry"/>
                </mxCell>
                <mxCell id="XMhZtcgcBXGXwFpGlEAI-28" style="edgeStyle=orthogonalEdgeStyle;rounded=0;orthogonalLoop=1;jettySize=auto;html=1;fontFamily=Times New Roman;fontSize=20;fontColor=#808080;" parent="XMhZtcgcBXGXwFpGlEAI-1" source="XMhZtcgcBXGXwFpGlEAI-25" target="XMhZtcgcBXGXwFpGlEAI-27" edge="1">
                    <mxGeometry relative="1" as="geometry"/>
                </mxCell>
                <mxCell id="XMhZtcgcBXGXwFpGlEAI-29" value="&lt;span id=&quot;docs-internal-guid-6f250543-7fff-b2d6-5344-95b8192d7042&quot; style=&quot;font-size: 20px;&quot;&gt;&lt;span style=&quot;font-size: 20px; background-color: transparent; font-variant-numeric: normal; font-variant-east-asian: normal; vertical-align: baseline;&quot;&gt;Stop timer T331&lt;/span&gt;&lt;/span&gt;" style="rounded=1;whiteSpace=wrap;html=1;fontSize=20;fontStyle=1;fontFamily=Times New Roman;" parent="XMhZtcgcBXGXwFpGlEAI-1" vertex="1">
                    <mxGeometry x="-660" y="4776" width="350" height="50" as="geometry"/>
                </mxCell>
                <mxCell id="XMhZtcgcBXGXwFpGlEAI-30" style="edgeStyle=orthogonalEdgeStyle;rounded=0;orthogonalLoop=1;jettySize=auto;html=1;entryX=0.5;entryY=0;entryDx=0;entryDy=0;fontFamily=Times New Roman;fontSize=20;fontColor=#808080;" parent="XMhZtcgcBXGXwFpGlEAI-1" source="XMhZtcgcBXGXwFpGlEAI-27" target="XMhZtcgcBXGXwFpGlEAI-29" edge="1">
                    <mxGeometry relative="1" as="geometry"/>
                </mxCell>
                <mxCell id="XMhZtcgcBXGXwFpGlEAI-31" value="&lt;span id=&quot;docs-internal-guid-6f250543-7fff-b2d6-5344-95b8192d7042&quot; style=&quot;font-size: 20px;&quot;&gt;&lt;span style=&quot;font-size: 20px; background-color: transparent; font-variant-numeric: normal; font-variant-east-asian: normal; vertical-align: baseline;&quot;&gt;Perform the actions (5.7.8.3)&lt;/span&gt;&lt;/span&gt;" style="rounded=1;whiteSpace=wrap;html=1;fontSize=20;fontStyle=1;fontFamily=Times New Roman;fillColor=#f5f5f5;fontColor=#333333;strokeColor=#666666;" parent="XMhZtcgcBXGXwFpGlEAI-1" vertex="1">
                    <mxGeometry x="-660" y="4876" width="350" height="50" as="geometry"/>
                </mxCell>
                <mxCell id="XMhZtcgcBXGXwFpGlEAI-32" style="edgeStyle=orthogonalEdgeStyle;rounded=0;orthogonalLoop=1;jettySize=auto;html=1;fontFamily=Times New Roman;fontSize=20;fontColor=#808080;" parent="XMhZtcgcBXGXwFpGlEAI-1" source="XMhZtcgcBXGXwFpGlEAI-29" target="XMhZtcgcBXGXwFpGlEAI-31" edge="1">
                    <mxGeometry relative="1" as="geometry"/>
                </mxCell>
                <mxCell id="XMhZtcgcBXGXwFpGlEAI-33" value="&lt;span id=&quot;docs-internal-guid-6f250543-7fff-b2d6-5344-95b8192d7042&quot; style=&quot;font-size: 20px;&quot;&gt;&lt;span style=&quot;font-size: 20px; background-color: transparent; font-variant-numeric: normal; font-variant-east-asian: normal; vertical-align: baseline;&quot;&gt;Enter RRC_CONNECTED&lt;/span&gt;&lt;/span&gt;" style="rounded=1;whiteSpace=wrap;html=1;fontSize=20;fontStyle=1;fontFamily=Times New Roman;" parent="XMhZtcgcBXGXwFpGlEAI-1" vertex="1">
                    <mxGeometry x="-250" y="4200" width="350" height="50" as="geometry"/>
                </mxCell>
                <mxCell id="XMhZtcgcBXGXwFpGlEAI-34" style="edgeStyle=orthogonalEdgeStyle;rounded=0;orthogonalLoop=1;jettySize=auto;html=1;entryX=0;entryY=0.5;entryDx=0;entryDy=0;fontFamily=Times New Roman;fontSize=20;fontColor=#808080;" parent="XMhZtcgcBXGXwFpGlEAI-1" source="XMhZtcgcBXGXwFpGlEAI-31" target="XMhZtcgcBXGXwFpGlEAI-33" edge="1">
                    <mxGeometry relative="1" as="geometry"/>
                </mxCell>
                <mxCell id="XMhZtcgcBXGXwFpGlEAI-35" value="&lt;span id=&quot;docs-internal-guid-6f250543-7fff-b2d6-5344-95b8192d7042&quot; style=&quot;font-size: 20px;&quot;&gt;&lt;span style=&quot;font-size: 20px; background-color: transparent; font-variant-numeric: normal; font-variant-east-asian: normal; vertical-align: baseline;&quot;&gt;Stop the cell re-selection procedure&lt;/span&gt;&lt;/span&gt;" style="rounded=1;whiteSpace=wrap;html=1;fontSize=20;fontStyle=1;fontFamily=Times New Roman;" parent="XMhZtcgcBXGXwFpGlEAI-1" vertex="1">
                    <mxGeometry x="-250" y="4290" width="350" height="50" as="geometry"/>
                </mxCell>
                <mxCell id="XMhZtcgcBXGXwFpGlEAI-36" style="edgeStyle=orthogonalEdgeStyle;rounded=0;orthogonalLoop=1;jettySize=auto;html=1;fontFamily=Times New Roman;fontSize=20;fontColor=#808080;" parent="XMhZtcgcBXGXwFpGlEAI-1" source="XMhZtcgcBXGXwFpGlEAI-33" target="XMhZtcgcBXGXwFpGlEAI-35" edge="1">
                    <mxGeometry relative="1" as="geometry"/>
                </mxCell>
                <mxCell id="XMhZtcgcBXGXwFpGlEAI-37" value="&lt;span id=&quot;docs-internal-guid-6f250543-7fff-b2d6-5344-95b8192d7042&quot; style=&quot;font-size: 20px;&quot;&gt;&lt;span style=&quot;font-size: 20px; background-color: transparent; font-variant-numeric: normal; font-variant-east-asian: normal; vertical-align: baseline;&quot;&gt;Consider the current cell to be the PCell&lt;/span&gt;&lt;/span&gt;" style="rounded=1;whiteSpace=wrap;html=1;fontSize=20;fontStyle=1;fontFamily=Times New Roman;" parent="XMhZtcgcBXGXwFpGlEAI-1" vertex="1">
                    <mxGeometry x="-250" y="4376" width="350" height="50" as="geometry"/>
                </mxCell>
                <mxCell id="XMhZtcgcBXGXwFpGlEAI-38" style="edgeStyle=orthogonalEdgeStyle;rounded=0;orthogonalLoop=1;jettySize=auto;html=1;fontFamily=Times New Roman;fontSize=20;fontColor=#808080;" parent="XMhZtcgcBXGXwFpGlEAI-1" source="XMhZtcgcBXGXwFpGlEAI-35" target="XMhZtcgcBXGXwFpGlEAI-37" edge="1">
                    <mxGeometry relative="1" as="geometry"/>
                </mxCell>
                <mxCell id="XMhZtcgcBXGXwFpGlEAI-39" value="&lt;span id=&quot;docs-internal-guid-6f250543-7fff-b2d6-5344-95b8192d7042&quot; style=&quot;font-size: 20px;&quot;&gt;&lt;span style=&quot;font-size: 20px; background-color: transparent; font-variant-numeric: normal; font-variant-east-asian: normal; vertical-align: baseline;&quot;&gt;Set the content of RRCSetupComplete message&lt;/span&gt;&lt;/span&gt;" style="rounded=1;whiteSpace=wrap;html=1;fontSize=20;fontStyle=1;fontFamily=Times New Roman;" parent="XMhZtcgcBXGXwFpGlEAI-1" vertex="1">
                    <mxGeometry x="-250" y="4466" width="350" height="50" as="geometry"/>
                </mxCell>
                <mxCell id="XMhZtcgcBXGXwFpGlEAI-40" style="edgeStyle=orthogonalEdgeStyle;rounded=0;orthogonalLoop=1;jettySize=auto;html=1;fontFamily=Times New Roman;fontSize=20;fontColor=#808080;" parent="XMhZtcgcBXGXwFpGlEAI-1" source="XMhZtcgcBXGXwFpGlEAI-37" target="XMhZtcgcBXGXwFpGlEAI-39" edge="1">
                    <mxGeometry relative="1" as="geometry"/>
                </mxCell>
                <mxCell id="XMhZtcgcBXGXwFpGlEAI-41" value="&lt;span id=&quot;docs-internal-guid-6f250543-7fff-b2d6-5344-95b8192d7042&quot; style=&quot;font-size: 20px;&quot;&gt;&lt;span style=&quot;font-size: 20px; background-color: transparent; font-variant-numeric: normal; font-variant-east-asian: normal; vertical-align: baseline;&quot;&gt;Submit the RRCSetupComplete message to lower layers&lt;/span&gt;&lt;/span&gt;" style="rounded=1;whiteSpace=wrap;html=1;fontSize=20;fontStyle=1;fontFamily=Times New Roman;" parent="XMhZtcgcBXGXwFpGlEAI-1" vertex="1">
                    <mxGeometry x="-250" y="4556" width="350" height="50" as="geometry"/>
                </mxCell>
                <mxCell id="XMhZtcgcBXGXwFpGlEAI-42" style="edgeStyle=orthogonalEdgeStyle;rounded=0;orthogonalLoop=1;jettySize=auto;html=1;fontFamily=Times New Roman;fontSize=20;fontColor=#808080;" parent="XMhZtcgcBXGXwFpGlEAI-1" source="XMhZtcgcBXGXwFpGlEAI-39" target="XMhZtcgcBXGXwFpGlEAI-41" edge="1">
                    <mxGeometry relative="1" as="geometry"/>
                </mxCell>
            </root>
        </mxGraphModel>
    </diagram>
    <diagram id="8cetjBkki0h4QdD1up1D" name="Reception of the RRCReject by the UE ">
        <mxGraphModel dx="2750" dy="-3876" grid="1" gridSize="10" guides="1" tooltips="1" connect="1" arrows="1" fold="1" page="1" pageScale="1" pageWidth="850" pageHeight="1100" math="0" shadow="0">
            <root>
                <mxCell id="UDJj3uM3SnWdYRWBOtLa-0"/>
                <mxCell id="UDJj3uM3SnWdYRWBOtLa-1" parent="UDJj3uM3SnWdYRWBOtLa-0"/>
                <mxCell id="UDJj3uM3SnWdYRWBOtLa-2" value="" style="group" parent="UDJj3uM3SnWdYRWBOtLa-1" vertex="1" connectable="0">
                    <mxGeometry x="-1360" y="5140" width="710" height="770" as="geometry"/>
                </mxCell>
                <mxCell id="UDJj3uM3SnWdYRWBOtLa-3" value="Reception of the RRCReject by the UE&amp;nbsp;" style="rounded=1;whiteSpace=wrap;html=1;fontSize=20;fontFamily=Times New Roman;fontStyle=1" parent="UDJj3uM3SnWdYRWBOtLa-2" vertex="1">
                    <mxGeometry x="350" width="360" height="60" as="geometry"/>
                </mxCell>
                <mxCell id="UDJj3uM3SnWdYRWBOtLa-4" value="Stop Timer T300" style="rounded=1;whiteSpace=wrap;html=1;fontSize=20;fontFamily=Times New Roman;fontStyle=1" parent="UDJj3uM3SnWdYRWBOtLa-2" vertex="1">
                    <mxGeometry x="350" y="90" width="360" height="60" as="geometry"/>
                </mxCell>
                <mxCell id="UDJj3uM3SnWdYRWBOtLa-5" style="edgeStyle=orthogonalEdgeStyle;rounded=0;orthogonalLoop=1;jettySize=auto;html=1;fontFamily=Times New Roman;fontSize=20;" parent="UDJj3uM3SnWdYRWBOtLa-2" source="UDJj3uM3SnWdYRWBOtLa-3" target="UDJj3uM3SnWdYRWBOtLa-4" edge="1">
                    <mxGeometry relative="1" as="geometry"/>
                </mxCell>
                <mxCell id="UDJj3uM3SnWdYRWBOtLa-6" value="Stop Timer T319" style="rounded=1;whiteSpace=wrap;html=1;fontSize=20;fontFamily=Times New Roman;fontStyle=1" parent="UDJj3uM3SnWdYRWBOtLa-2" vertex="1">
                    <mxGeometry x="350" y="180" width="360" height="60" as="geometry"/>
                </mxCell>
                <mxCell id="UDJj3uM3SnWdYRWBOtLa-7" style="edgeStyle=orthogonalEdgeStyle;rounded=0;orthogonalLoop=1;jettySize=auto;html=1;fontFamily=Times New Roman;fontSize=20;" parent="UDJj3uM3SnWdYRWBOtLa-2" source="UDJj3uM3SnWdYRWBOtLa-4" target="UDJj3uM3SnWdYRWBOtLa-6" edge="1">
                    <mxGeometry relative="1" as="geometry"/>
                </mxCell>
                <mxCell id="UDJj3uM3SnWdYRWBOtLa-8" value="Stop Timer T302" style="rounded=1;whiteSpace=wrap;html=1;fontSize=20;fontFamily=Times New Roman;fontStyle=1" parent="UDJj3uM3SnWdYRWBOtLa-2" vertex="1">
                    <mxGeometry x="350" y="270" width="360" height="60" as="geometry"/>
                </mxCell>
                <mxCell id="UDJj3uM3SnWdYRWBOtLa-9" style="edgeStyle=orthogonalEdgeStyle;rounded=0;orthogonalLoop=1;jettySize=auto;html=1;fontFamily=Times New Roman;fontSize=20;" parent="UDJj3uM3SnWdYRWBOtLa-2" source="UDJj3uM3SnWdYRWBOtLa-6" target="UDJj3uM3SnWdYRWBOtLa-8" edge="1">
                    <mxGeometry relative="1" as="geometry"/>
                </mxCell>
                <mxCell id="UDJj3uM3SnWdYRWBOtLa-10" value="Reset MAC to default configuration" style="rounded=1;whiteSpace=wrap;html=1;fontSize=20;fontFamily=Times New Roman;fontStyle=1" parent="UDJj3uM3SnWdYRWBOtLa-2" vertex="1">
                    <mxGeometry x="350" y="370" width="360" height="60" as="geometry"/>
                </mxCell>
                <mxCell id="UDJj3uM3SnWdYRWBOtLa-11" style="edgeStyle=orthogonalEdgeStyle;rounded=0;orthogonalLoop=1;jettySize=auto;html=1;fontFamily=Times New Roman;fontSize=20;" parent="UDJj3uM3SnWdYRWBOtLa-2" source="UDJj3uM3SnWdYRWBOtLa-8" target="UDJj3uM3SnWdYRWBOtLa-10" edge="1">
                    <mxGeometry relative="1" as="geometry"/>
                </mxCell>
                <mxCell id="UDJj3uM3SnWdYRWBOtLa-12" value="waitTime is configured&amp;nbsp;" style="rhombus;whiteSpace=wrap;html=1;fontFamily=Times New Roman;fontSize=20;" parent="UDJj3uM3SnWdYRWBOtLa-2" vertex="1">
                    <mxGeometry x="435" y="469" width="190" height="80" as="geometry"/>
                </mxCell>
                <mxCell id="UDJj3uM3SnWdYRWBOtLa-13" style="edgeStyle=orthogonalEdgeStyle;rounded=0;orthogonalLoop=1;jettySize=auto;html=1;fontFamily=Times New Roman;fontSize=20;" parent="UDJj3uM3SnWdYRWBOtLa-2" source="UDJj3uM3SnWdYRWBOtLa-10" target="UDJj3uM3SnWdYRWBOtLa-12" edge="1">
                    <mxGeometry relative="1" as="geometry"/>
                </mxCell>
                <mxCell id="UDJj3uM3SnWdYRWBOtLa-14" value="Start timer T302" style="rounded=1;whiteSpace=wrap;html=1;fontSize=20;fontFamily=Times New Roman;fontStyle=1" parent="UDJj3uM3SnWdYRWBOtLa-2" vertex="1">
                    <mxGeometry y="479" width="360" height="60" as="geometry"/>
                </mxCell>
                <mxCell id="UDJj3uM3SnWdYRWBOtLa-15" style="edgeStyle=orthogonalEdgeStyle;rounded=0;orthogonalLoop=1;jettySize=auto;html=1;fontFamily=Times New Roman;fontSize=20;" parent="UDJj3uM3SnWdYRWBOtLa-2" source="UDJj3uM3SnWdYRWBOtLa-12" target="UDJj3uM3SnWdYRWBOtLa-14" edge="1">
                    <mxGeometry relative="1" as="geometry"/>
                </mxCell>
                <mxCell id="UDJj3uM3SnWdYRWBOtLa-16" value="Suppose upper layer not request" style="rounded=1;whiteSpace=wrap;html=1;fontSize=20;fontFamily=Times New Roman;fontStyle=1;fillColor=#f5f5f5;fontColor=#333333;strokeColor=#666666;" parent="UDJj3uM3SnWdYRWBOtLa-2" vertex="1">
                    <mxGeometry x="350" y="600" width="360" height="60" as="geometry"/>
                </mxCell>
                <mxCell id="UDJj3uM3SnWdYRWBOtLa-17" style="edgeStyle=orthogonalEdgeStyle;rounded=0;orthogonalLoop=1;jettySize=auto;html=1;fontFamily=Times New Roman;fontSize=20;" parent="UDJj3uM3SnWdYRWBOtLa-2" source="UDJj3uM3SnWdYRWBOtLa-12" target="UDJj3uM3SnWdYRWBOtLa-16" edge="1">
                    <mxGeometry relative="1" as="geometry"/>
                </mxCell>
                <mxCell id="UDJj3uM3SnWdYRWBOtLa-18" style="edgeStyle=orthogonalEdgeStyle;rounded=0;orthogonalLoop=1;jettySize=auto;html=1;entryX=0;entryY=0.5;entryDx=0;entryDy=0;fontFamily=Times New Roman;fontSize=20;" parent="UDJj3uM3SnWdYRWBOtLa-2" source="UDJj3uM3SnWdYRWBOtLa-14" target="UDJj3uM3SnWdYRWBOtLa-16" edge="1">
                    <mxGeometry relative="1" as="geometry"/>
                </mxCell>
                <mxCell id="UDJj3uM3SnWdYRWBOtLa-19" value="Complete" style="rounded=1;whiteSpace=wrap;html=1;fontSize=20;fontFamily=Times New Roman;fontStyle=1" parent="UDJj3uM3SnWdYRWBOtLa-2" vertex="1">
                    <mxGeometry x="350" y="710" width="360" height="60" as="geometry"/>
                </mxCell>
                <mxCell id="UDJj3uM3SnWdYRWBOtLa-20" style="edgeStyle=orthogonalEdgeStyle;rounded=0;orthogonalLoop=1;jettySize=auto;html=1;fontFamily=Times New Roman;fontSize=20;" parent="UDJj3uM3SnWdYRWBOtLa-2" source="UDJj3uM3SnWdYRWBOtLa-16" target="UDJj3uM3SnWdYRWBOtLa-19" edge="1">
                    <mxGeometry relative="1" as="geometry"/>
                </mxCell>
            </root>
        </mxGraphModel>
    </diagram>
</mxfile>